G75*
%MOMM*%
%FSLAX34Y34*%
%LPD*%
%INBottom Copper*%
%IPPOS*%
%AMOC8*
5,1,8,0,0,1.08239X$1,22.5*%
G01*
%ADD10C,1.320800*%
%ADD11C,1.524000*%
%ADD12C,2.000000*%
%ADD13C,3.000000*%
%ADD14C,0.756400*%
%ADD15C,0.152400*%


D10*
X173300Y143000D03*
X198700Y143000D03*
D11*
X88606Y118132D02*
X88606Y102892D01*
X43394Y102892D02*
X43394Y118132D01*
X88606Y53108D02*
X88606Y37868D01*
X43394Y37868D02*
X43394Y53108D01*
D12*
X71000Y198000D03*
X171000Y168000D03*
D13*
X30000Y240000D03*
D12*
X115000Y75000D03*
D14*
X163000Y71000D03*
D15*
X142000Y92000D02*
X129000Y92000D01*
D14*
X129000Y92000D03*
D15*
X142000Y92000D02*
X163000Y71000D01*
D14*
X30000Y214000D03*
D15*
X30000Y240000D01*
X91887Y105252D02*
X132064Y105252D01*
X91887Y105252D02*
X88606Y110512D01*
X134540Y107728D02*
X154924Y107728D01*
X134540Y107728D02*
X132064Y105252D01*
X42148Y165640D02*
X42148Y170212D01*
X69580Y197644D01*
X71000Y198000D01*
X122920Y168688D02*
X170164Y168688D01*
X122920Y168688D02*
X93964Y197644D01*
X71104Y197644D01*
X170164Y168688D02*
X171000Y168000D01*
X71104Y197644D02*
X71000Y198000D01*
X87868Y119920D02*
X87868Y110776D01*
X87868Y119920D02*
X42148Y165640D01*
X87868Y110776D02*
X88606Y110512D01*
D14*
X132064Y105252D03*
X154924Y107728D03*
X42148Y165640D03*
D15*
X115000Y88188D02*
X132064Y105252D01*
X115000Y88188D02*
X115000Y75000D01*
X156448Y113824D02*
X118348Y151924D01*
X156448Y113824D02*
X157972Y113824D01*
X162544Y109252D01*
X162544Y96012D01*
X155640Y89108D01*
X155640Y88108D01*
D14*
X118348Y151924D03*
X155640Y88108D03*
D15*
X108728Y175308D02*
X77152Y175308D01*
X73152Y179308D01*
X108728Y175308D02*
X177784Y106252D01*
D14*
X73152Y179308D03*
X177784Y106252D03*
D15*
X112252Y167164D02*
X73104Y167164D01*
X112252Y167164D02*
X169640Y109776D01*
X169640Y97252D01*
D14*
X73104Y167164D03*
X169640Y97252D03*
D15*
X122920Y177832D02*
X118348Y177832D01*
X77820Y218360D01*
X61532Y218360D01*
X36052Y192880D01*
X36052Y116872D01*
X42148Y110776D01*
X43394Y110512D01*
D14*
X122920Y177832D03*
D15*
X202168Y115348D02*
X202168Y110776D01*
X180832Y89440D01*
D14*
X202168Y115348D03*
X180832Y89440D03*
D15*
X209788Y162592D02*
X209788Y168688D01*
X209788Y162592D02*
X211312Y161068D01*
D14*
X209788Y168688D03*
X173308Y58912D03*
D15*
X179912Y58912D01*
X211312Y90312D01*
X211312Y161068D01*
X208264Y159544D02*
X148828Y218980D01*
X148828Y221456D01*
D14*
X148828Y221456D03*
X180308Y50768D03*
D15*
X179000Y66000D02*
X167000Y66000D01*
X167000Y50768D01*
X180308Y50768D01*
X208264Y95264D02*
X208264Y159544D01*
X208264Y95264D02*
X179000Y66000D01*
D14*
X192100Y37959D03*
D15*
X125041Y37959D01*
X70014Y92986D02*
X39291Y92986D01*
X29000Y103277D01*
X29000Y206000D01*
X40000Y206000D02*
X61000Y227000D01*
X98000Y227000D01*
D14*
X98000Y227000D03*
D15*
X70014Y92986D02*
X125041Y37959D01*
X40000Y206000D02*
X29000Y206000D01*
X153352Y208312D02*
X188880Y172784D01*
X153352Y208312D02*
X148352Y208312D01*
X188880Y172784D02*
X188880Y106632D01*
X174736Y92488D01*
X174736Y72676D01*
D14*
X148352Y208312D03*
X174736Y72676D03*
M02*
