G75*
%MOMM*%
%FSLAX34Y34*%
%LPD*%
%INTop Copper*%
%IPPOS*%
%AMOC8*
5,1,8,0,0,1.08239X$1,22.5*%
G01*
%ADD10R,1.300000X1.500000*%
%ADD11R,0.558800X1.270000*%
%ADD12R,1.270000X0.558800*%
%ADD13R,1.200000X1.200000*%
%ADD14C,1.320800*%
%ADD15C,1.524000*%
%ADD16C,3.000000*%
%ADD17C,0.152400*%
%ADD18C,0.756400*%


D10*
X86500Y148000D03*
X105500Y148000D03*
D11*
X179000Y120926D03*
X171000Y120926D03*
X163000Y120926D03*
X155000Y120926D03*
X147000Y120926D03*
X139000Y120926D03*
X131000Y120926D03*
X123000Y120926D03*
D12*
X108074Y106000D03*
X108074Y98000D03*
X108074Y90000D03*
X108074Y82000D03*
X108074Y74000D03*
X108074Y66000D03*
X108074Y58000D03*
X108074Y50000D03*
D11*
X123000Y35074D03*
X131000Y35074D03*
X139000Y35074D03*
X147000Y35074D03*
X155000Y35074D03*
X163000Y35074D03*
X171000Y35074D03*
X179000Y35074D03*
D12*
X193926Y50000D03*
X193926Y58000D03*
X193926Y66000D03*
X193926Y74000D03*
X193926Y82000D03*
X193926Y90000D03*
X193926Y98000D03*
X193926Y106000D03*
D13*
X161000Y238500D03*
X161000Y217500D03*
X36000Y198500D03*
X36000Y177500D03*
X136000Y238500D03*
X136000Y217500D03*
X111000Y238500D03*
X111000Y217500D03*
X86000Y238500D03*
X86000Y217500D03*
X161000Y198500D03*
X161000Y177500D03*
X136000Y198500D03*
X136000Y177500D03*
X111000Y198500D03*
X111000Y177500D03*
X86000Y198500D03*
X86000Y177500D03*
X61000Y198500D03*
X61000Y177500D03*
D14*
X173300Y143000D03*
X198700Y143000D03*
D10*
X60500Y148000D03*
X41500Y148000D03*
X131500Y148000D03*
X150500Y148000D03*
D15*
X88606Y118132D02*
X88606Y102892D01*
X43394Y102892D02*
X43394Y118132D01*
X88606Y53108D02*
X88606Y37868D01*
X43394Y37868D02*
X43394Y53108D01*
D16*
X30000Y240000D03*
D17*
X147304Y119920D02*
X147304Y106204D01*
X151876Y101632D01*
X157972Y101632D01*
X162544Y106204D01*
X162544Y119920D01*
X147304Y119920D02*
X147000Y120926D01*
X162544Y119920D02*
X163000Y120926D01*
X113776Y147352D02*
X106156Y147352D01*
X113776Y147352D02*
X115300Y145828D01*
X116824Y145828D02*
X129016Y145828D01*
X116824Y145828D02*
X115300Y145828D01*
X129016Y145828D02*
X130540Y147352D01*
X106156Y147352D02*
X105500Y148000D01*
X130540Y147352D02*
X131500Y148000D01*
X146160Y106204D02*
X147304Y106204D01*
X146160Y106204D02*
X137112Y97156D01*
X129000Y97156D01*
X129000Y96648D02*
X116824Y108824D01*
X116824Y145828D01*
X110728Y238792D02*
X86344Y238792D01*
X86000Y238500D01*
X110728Y238792D02*
X111000Y238500D01*
X136636Y238792D02*
X159496Y238792D01*
X136636Y238792D02*
X136000Y238500D01*
X159496Y238792D02*
X161000Y238500D01*
X135112Y238792D02*
X112252Y238792D01*
X111000Y238500D01*
X135112Y238792D02*
X136000Y238500D01*
X135112Y199168D02*
X112252Y199168D01*
X111000Y198500D01*
X135112Y199168D02*
X136000Y198500D01*
X136636Y199168D02*
X159496Y199168D01*
X161000Y198500D01*
X136636Y199168D02*
X136000Y198500D01*
X60436Y199168D02*
X36052Y199168D01*
X36000Y198500D01*
X60436Y199168D02*
X61000Y198500D01*
X61960Y199168D02*
X77200Y199168D01*
X84820Y199168D01*
X86000Y198500D01*
X61960Y199168D02*
X61000Y198500D01*
X154924Y34576D02*
X154924Y30004D01*
X154924Y34576D02*
X155000Y35074D01*
X36000Y198500D02*
X34528Y197644D01*
X86344Y199168D02*
X101584Y199168D01*
X110728Y199168D01*
X111000Y198500D01*
X86344Y199168D02*
X86000Y198500D01*
X84820Y232696D02*
X84820Y237268D01*
X84820Y232696D02*
X77200Y225076D01*
X77200Y199168D01*
X84820Y237268D02*
X86000Y238500D01*
X104632Y167164D02*
X104632Y148876D01*
X104632Y167164D02*
X101584Y170212D01*
X101584Y199168D01*
X104632Y148876D02*
X105500Y148000D01*
X34528Y199168D02*
X30480Y203216D01*
X34528Y199168D02*
X36000Y198500D01*
X155000Y63000D02*
X155000Y35074D01*
X155000Y63000D02*
X163000Y71000D01*
D18*
X163000Y71000D03*
X129000Y92000D03*
D17*
X129000Y96648D01*
X36000Y198500D02*
X36000Y208000D01*
X30000Y214000D01*
D18*
X30000Y214000D03*
D17*
X138160Y119920D02*
X138160Y111348D01*
X132064Y105252D01*
X138160Y119920D02*
X139000Y120926D01*
X154924Y119920D02*
X154924Y107728D01*
X154924Y119920D02*
X155000Y120926D01*
X42148Y148876D02*
X42148Y165640D01*
X42148Y148876D02*
X41500Y148000D01*
D18*
X132064Y105252D03*
X154924Y107728D03*
X42148Y165640D03*
D17*
X124444Y127540D02*
X124444Y121444D01*
X124444Y127540D02*
X135112Y138208D01*
X168640Y138208D01*
X173212Y142780D01*
X124444Y121444D02*
X123000Y120926D01*
X173212Y142780D02*
X173300Y143000D01*
X132064Y127540D02*
X132064Y121444D01*
X132064Y127540D02*
X136636Y132112D01*
X186928Y132112D01*
X197596Y142780D01*
X132064Y121444D02*
X131000Y120926D01*
X197596Y142780D02*
X198700Y143000D01*
X145780Y177832D02*
X136636Y177832D01*
X145780Y177832D02*
X154924Y186976D01*
X173212Y186976D01*
X211312Y148876D01*
X211312Y110776D01*
X199120Y98584D01*
X194548Y98584D01*
X136636Y177832D02*
X136000Y177500D01*
X194548Y98584D02*
X193926Y98000D01*
X112252Y159544D02*
X112252Y176308D01*
X112252Y159544D02*
X118348Y153448D01*
X118348Y151924D01*
X155640Y88108D02*
X170356Y88108D01*
X186928Y104680D01*
X193024Y104680D01*
X112252Y176308D02*
X111000Y177500D01*
X193926Y106000D02*
X193024Y104680D01*
D18*
X118348Y151924D03*
X155640Y88108D03*
D17*
X86000Y177500D02*
X84192Y179308D01*
X73152Y179308D01*
X177784Y119920D02*
X177784Y106252D01*
X177784Y119920D02*
X179000Y120926D01*
D18*
X73152Y179308D03*
X177784Y106252D03*
D17*
X73104Y167164D02*
X62768Y177500D01*
X61000Y177500D01*
X169640Y119396D02*
X169640Y97252D01*
X169640Y119396D02*
X170164Y119920D01*
X171000Y120926D01*
D18*
X73104Y167164D03*
X169640Y97252D03*
D17*
X46720Y176308D02*
X36052Y176308D01*
X46720Y176308D02*
X61960Y161068D01*
X90916Y161068D01*
X95488Y156496D01*
X95488Y139732D01*
X107680Y127540D01*
X107680Y106204D01*
X36052Y176308D02*
X36000Y177500D01*
X107680Y106204D02*
X108074Y106000D01*
X107680Y83344D02*
X101584Y83344D01*
X98536Y86392D01*
X98536Y132112D01*
X87868Y142780D01*
X87868Y147352D01*
X107680Y83344D02*
X108074Y82000D01*
X87868Y147352D02*
X86500Y148000D01*
X130540Y168688D02*
X150352Y148876D01*
X130540Y168688D02*
X129016Y168688D01*
X122920Y174784D01*
X122920Y177832D01*
X150352Y148876D02*
X150500Y148000D01*
X86344Y148876D02*
X77200Y148876D01*
X68056Y158020D01*
X52816Y158020D01*
X51292Y156496D01*
X51292Y118396D01*
X43672Y110776D01*
X86500Y148000D02*
X86344Y148876D01*
X43672Y110776D02*
X43394Y110512D01*
D18*
X122920Y177832D03*
D17*
X161020Y176308D02*
X179308Y176308D01*
X208264Y147352D01*
X208264Y121444D01*
X202168Y115348D01*
X193024Y89440D02*
X180832Y89440D01*
X161020Y176308D02*
X161000Y177500D01*
X193926Y90000D02*
X193024Y89440D01*
D18*
X202168Y115348D03*
X180832Y89440D03*
D17*
X209788Y168688D02*
X161020Y217456D01*
X173308Y58912D02*
X171688Y57292D01*
X171688Y36100D01*
X161020Y217456D02*
X161000Y217500D01*
X171688Y36100D02*
X171000Y35074D01*
D18*
X209788Y168688D03*
X173308Y58912D03*
D17*
X148828Y221456D02*
X139956Y221456D01*
X136000Y217500D01*
X180308Y50768D02*
X180308Y39431D01*
X179000Y35074D01*
D18*
X148828Y221456D03*
X180308Y50768D03*
D17*
X115300Y218980D02*
X112252Y218980D01*
X111664Y218285D01*
X111000Y217500D01*
X194548Y51340D02*
X193926Y50000D01*
X193926Y41074D01*
X194000Y41000D01*
X192100Y39100D01*
X192100Y37959D01*
D18*
X192100Y37959D03*
X98000Y227000D03*
D17*
X102948Y227000D01*
X111664Y218285D01*
X95488Y217456D02*
X86344Y217456D01*
X95488Y217456D02*
X104632Y208312D01*
X148352Y208312D01*
X174736Y72676D02*
X188452Y58960D01*
X193024Y58960D01*
X86344Y217456D02*
X86000Y217500D01*
X193024Y58960D02*
X193926Y58000D01*
D18*
X148352Y208312D03*
X174736Y72676D03*
D17*
X193024Y81820D02*
X153400Y81820D01*
X115300Y43720D01*
X101584Y43720D01*
X98536Y46768D01*
X98536Y78772D01*
X61960Y115348D01*
X61960Y147352D01*
X193024Y81820D02*
X193926Y82000D01*
X61960Y147352D02*
X60500Y148000D01*
M02*
