G04 EAGLE Gerber RS-274X export*
G75*
%MOMM*%
%FSLAX34Y34*%
%LPD*%
%INSilkscreen Bottom*%
%IPPOS*%
%AMOC8*
5,1,8,0,0,1.08239X$1,22.5*%
G01*
%ADD10C,0.101600*%
%ADD11C,0.127000*%


D10*
X80492Y230192D02*
X76597Y218508D01*
X72703Y230192D01*
X66565Y218508D02*
X63969Y218508D01*
X66565Y218508D02*
X66652Y218510D01*
X66740Y218516D01*
X66826Y218526D01*
X66913Y218539D01*
X66998Y218557D01*
X67083Y218578D01*
X67167Y218603D01*
X67249Y218632D01*
X67330Y218665D01*
X67410Y218701D01*
X67488Y218740D01*
X67564Y218784D01*
X67638Y218830D01*
X67709Y218880D01*
X67779Y218933D01*
X67846Y218989D01*
X67910Y219048D01*
X67972Y219110D01*
X68031Y219174D01*
X68087Y219241D01*
X68140Y219311D01*
X68190Y219382D01*
X68236Y219456D01*
X68280Y219532D01*
X68319Y219610D01*
X68355Y219690D01*
X68388Y219771D01*
X68417Y219853D01*
X68442Y219937D01*
X68463Y220022D01*
X68481Y220107D01*
X68494Y220194D01*
X68504Y220280D01*
X68510Y220368D01*
X68512Y220455D01*
X68513Y220455D02*
X68513Y224350D01*
X68512Y224350D02*
X68510Y224437D01*
X68504Y224525D01*
X68494Y224611D01*
X68481Y224698D01*
X68463Y224783D01*
X68442Y224868D01*
X68417Y224952D01*
X68388Y225034D01*
X68355Y225115D01*
X68319Y225195D01*
X68280Y225273D01*
X68236Y225349D01*
X68190Y225423D01*
X68140Y225494D01*
X68087Y225564D01*
X68031Y225631D01*
X67972Y225695D01*
X67910Y225757D01*
X67846Y225816D01*
X67779Y225872D01*
X67709Y225925D01*
X67638Y225975D01*
X67564Y226021D01*
X67488Y226065D01*
X67410Y226104D01*
X67330Y226140D01*
X67249Y226173D01*
X67167Y226202D01*
X67083Y226227D01*
X66998Y226248D01*
X66913Y226266D01*
X66826Y226279D01*
X66740Y226289D01*
X66652Y226295D01*
X66565Y226297D01*
X63969Y226297D01*
X57802Y218508D02*
X55206Y218508D01*
X57802Y218508D02*
X57889Y218510D01*
X57977Y218516D01*
X58063Y218526D01*
X58150Y218539D01*
X58235Y218557D01*
X58320Y218578D01*
X58404Y218603D01*
X58486Y218632D01*
X58567Y218665D01*
X58647Y218701D01*
X58725Y218740D01*
X58801Y218784D01*
X58875Y218830D01*
X58946Y218880D01*
X59016Y218933D01*
X59083Y218989D01*
X59147Y219048D01*
X59209Y219110D01*
X59268Y219174D01*
X59324Y219241D01*
X59377Y219311D01*
X59427Y219382D01*
X59473Y219456D01*
X59517Y219532D01*
X59556Y219610D01*
X59592Y219690D01*
X59625Y219771D01*
X59654Y219853D01*
X59679Y219937D01*
X59700Y220022D01*
X59718Y220107D01*
X59731Y220194D01*
X59741Y220280D01*
X59747Y220368D01*
X59749Y220455D01*
X59750Y220455D02*
X59750Y224350D01*
X59749Y224350D02*
X59747Y224437D01*
X59741Y224525D01*
X59731Y224611D01*
X59718Y224698D01*
X59700Y224783D01*
X59679Y224868D01*
X59654Y224952D01*
X59625Y225034D01*
X59592Y225115D01*
X59556Y225195D01*
X59517Y225273D01*
X59473Y225349D01*
X59427Y225423D01*
X59377Y225494D01*
X59324Y225564D01*
X59268Y225631D01*
X59209Y225695D01*
X59147Y225757D01*
X59083Y225816D01*
X59016Y225872D01*
X58946Y225925D01*
X58875Y225975D01*
X58801Y226021D01*
X58725Y226065D01*
X58647Y226104D01*
X58567Y226140D01*
X58486Y226173D01*
X58404Y226202D01*
X58320Y226227D01*
X58235Y226248D01*
X58150Y226266D01*
X58063Y226279D01*
X57977Y226289D01*
X57889Y226295D01*
X57802Y226297D01*
X55206Y226297D01*
D11*
X56858Y198000D02*
X56862Y198347D01*
X56875Y198694D01*
X56896Y199040D01*
X56926Y199386D01*
X56964Y199731D01*
X57011Y200075D01*
X57066Y200418D01*
X57130Y200759D01*
X57202Y201099D01*
X57282Y201436D01*
X57370Y201772D01*
X57467Y202105D01*
X57572Y202436D01*
X57685Y202764D01*
X57806Y203090D01*
X57934Y203412D01*
X58071Y203731D01*
X58216Y204046D01*
X58368Y204358D01*
X58528Y204666D01*
X58695Y204971D01*
X58870Y205270D01*
X59052Y205566D01*
X59241Y205857D01*
X59438Y206143D01*
X59641Y206424D01*
X59851Y206701D01*
X60068Y206972D01*
X60292Y207237D01*
X60521Y207497D01*
X60758Y207751D01*
X61000Y208000D01*
X61249Y208242D01*
X61503Y208479D01*
X61763Y208708D01*
X62028Y208932D01*
X62299Y209149D01*
X62576Y209359D01*
X62857Y209562D01*
X63143Y209759D01*
X63434Y209948D01*
X63730Y210130D01*
X64029Y210305D01*
X64334Y210472D01*
X64642Y210632D01*
X64954Y210784D01*
X65269Y210929D01*
X65588Y211066D01*
X65910Y211194D01*
X66236Y211315D01*
X66564Y211428D01*
X66895Y211533D01*
X67228Y211630D01*
X67564Y211718D01*
X67901Y211798D01*
X68241Y211870D01*
X68582Y211934D01*
X68925Y211989D01*
X69269Y212036D01*
X69614Y212074D01*
X69960Y212104D01*
X70306Y212125D01*
X70653Y212138D01*
X71000Y212142D01*
X71347Y212138D01*
X71694Y212125D01*
X72040Y212104D01*
X72386Y212074D01*
X72731Y212036D01*
X73075Y211989D01*
X73418Y211934D01*
X73759Y211870D01*
X74099Y211798D01*
X74436Y211718D01*
X74772Y211630D01*
X75105Y211533D01*
X75436Y211428D01*
X75764Y211315D01*
X76090Y211194D01*
X76412Y211066D01*
X76731Y210929D01*
X77046Y210784D01*
X77358Y210632D01*
X77666Y210472D01*
X77971Y210305D01*
X78270Y210130D01*
X78566Y209948D01*
X78857Y209759D01*
X79143Y209562D01*
X79424Y209359D01*
X79701Y209149D01*
X79972Y208932D01*
X80237Y208708D01*
X80497Y208479D01*
X80751Y208242D01*
X81000Y208000D01*
X81242Y207751D01*
X81479Y207497D01*
X81708Y207237D01*
X81932Y206972D01*
X82149Y206701D01*
X82359Y206424D01*
X82562Y206143D01*
X82759Y205857D01*
X82948Y205566D01*
X83130Y205270D01*
X83305Y204971D01*
X83472Y204666D01*
X83632Y204358D01*
X83784Y204046D01*
X83929Y203731D01*
X84066Y203412D01*
X84194Y203090D01*
X84315Y202764D01*
X84428Y202436D01*
X84533Y202105D01*
X84630Y201772D01*
X84718Y201436D01*
X84798Y201099D01*
X84870Y200759D01*
X84934Y200418D01*
X84989Y200075D01*
X85036Y199731D01*
X85074Y199386D01*
X85104Y199040D01*
X85125Y198694D01*
X85138Y198347D01*
X85142Y198000D01*
X85138Y197653D01*
X85125Y197306D01*
X85104Y196960D01*
X85074Y196614D01*
X85036Y196269D01*
X84989Y195925D01*
X84934Y195582D01*
X84870Y195241D01*
X84798Y194901D01*
X84718Y194564D01*
X84630Y194228D01*
X84533Y193895D01*
X84428Y193564D01*
X84315Y193236D01*
X84194Y192910D01*
X84066Y192588D01*
X83929Y192269D01*
X83784Y191954D01*
X83632Y191642D01*
X83472Y191334D01*
X83305Y191029D01*
X83130Y190730D01*
X82948Y190434D01*
X82759Y190143D01*
X82562Y189857D01*
X82359Y189576D01*
X82149Y189299D01*
X81932Y189028D01*
X81708Y188763D01*
X81479Y188503D01*
X81242Y188249D01*
X81000Y188000D01*
X80751Y187758D01*
X80497Y187521D01*
X80237Y187292D01*
X79972Y187068D01*
X79701Y186851D01*
X79424Y186641D01*
X79143Y186438D01*
X78857Y186241D01*
X78566Y186052D01*
X78270Y185870D01*
X77971Y185695D01*
X77666Y185528D01*
X77358Y185368D01*
X77046Y185216D01*
X76731Y185071D01*
X76412Y184934D01*
X76090Y184806D01*
X75764Y184685D01*
X75436Y184572D01*
X75105Y184467D01*
X74772Y184370D01*
X74436Y184282D01*
X74099Y184202D01*
X73759Y184130D01*
X73418Y184066D01*
X73075Y184011D01*
X72731Y183964D01*
X72386Y183926D01*
X72040Y183896D01*
X71694Y183875D01*
X71347Y183862D01*
X71000Y183858D01*
X70653Y183862D01*
X70306Y183875D01*
X69960Y183896D01*
X69614Y183926D01*
X69269Y183964D01*
X68925Y184011D01*
X68582Y184066D01*
X68241Y184130D01*
X67901Y184202D01*
X67564Y184282D01*
X67228Y184370D01*
X66895Y184467D01*
X66564Y184572D01*
X66236Y184685D01*
X65910Y184806D01*
X65588Y184934D01*
X65269Y185071D01*
X64954Y185216D01*
X64642Y185368D01*
X64334Y185528D01*
X64029Y185695D01*
X63730Y185870D01*
X63434Y186052D01*
X63143Y186241D01*
X62857Y186438D01*
X62576Y186641D01*
X62299Y186851D01*
X62028Y187068D01*
X61763Y187292D01*
X61503Y187521D01*
X61249Y187758D01*
X61000Y188000D01*
X60758Y188249D01*
X60521Y188503D01*
X60292Y188763D01*
X60068Y189028D01*
X59851Y189299D01*
X59641Y189576D01*
X59438Y189857D01*
X59241Y190143D01*
X59052Y190434D01*
X58870Y190730D01*
X58695Y191029D01*
X58528Y191334D01*
X58368Y191642D01*
X58216Y191954D01*
X58071Y192269D01*
X57934Y192588D01*
X57806Y192910D01*
X57685Y193236D01*
X57572Y193564D01*
X57467Y193895D01*
X57370Y194228D01*
X57282Y194564D01*
X57202Y194901D01*
X57130Y195241D01*
X57066Y195582D01*
X57011Y195925D01*
X56964Y196269D01*
X56926Y196614D01*
X56896Y196960D01*
X56875Y197306D01*
X56862Y197653D01*
X56858Y198000D01*
D10*
X176597Y188508D02*
X180492Y200192D01*
X172703Y200192D02*
X176597Y188508D01*
X166565Y188508D02*
X163969Y188508D01*
X166565Y188508D02*
X166652Y188510D01*
X166740Y188516D01*
X166826Y188526D01*
X166913Y188539D01*
X166998Y188557D01*
X167083Y188578D01*
X167167Y188603D01*
X167249Y188632D01*
X167330Y188665D01*
X167410Y188701D01*
X167488Y188740D01*
X167564Y188784D01*
X167638Y188830D01*
X167709Y188880D01*
X167779Y188933D01*
X167846Y188989D01*
X167910Y189048D01*
X167972Y189110D01*
X168031Y189174D01*
X168087Y189241D01*
X168140Y189311D01*
X168190Y189382D01*
X168236Y189456D01*
X168280Y189532D01*
X168319Y189610D01*
X168355Y189690D01*
X168388Y189771D01*
X168417Y189853D01*
X168442Y189937D01*
X168463Y190022D01*
X168481Y190107D01*
X168494Y190194D01*
X168504Y190280D01*
X168510Y190368D01*
X168512Y190455D01*
X168513Y190455D02*
X168513Y194350D01*
X168512Y194350D02*
X168510Y194437D01*
X168504Y194525D01*
X168494Y194611D01*
X168481Y194698D01*
X168463Y194783D01*
X168442Y194868D01*
X168417Y194952D01*
X168388Y195034D01*
X168355Y195115D01*
X168319Y195195D01*
X168280Y195273D01*
X168236Y195349D01*
X168190Y195423D01*
X168140Y195494D01*
X168087Y195564D01*
X168031Y195631D01*
X167972Y195695D01*
X167910Y195757D01*
X167846Y195816D01*
X167779Y195872D01*
X167709Y195925D01*
X167638Y195975D01*
X167564Y196021D01*
X167488Y196065D01*
X167410Y196104D01*
X167330Y196140D01*
X167249Y196173D01*
X167167Y196202D01*
X167083Y196227D01*
X166998Y196248D01*
X166913Y196266D01*
X166826Y196279D01*
X166740Y196289D01*
X166652Y196295D01*
X166565Y196297D01*
X163969Y196297D01*
X157802Y188508D02*
X155206Y188508D01*
X157802Y188508D02*
X157889Y188510D01*
X157977Y188516D01*
X158063Y188526D01*
X158150Y188539D01*
X158235Y188557D01*
X158320Y188578D01*
X158404Y188603D01*
X158486Y188632D01*
X158567Y188665D01*
X158647Y188701D01*
X158725Y188740D01*
X158801Y188784D01*
X158875Y188830D01*
X158946Y188880D01*
X159016Y188933D01*
X159083Y188989D01*
X159147Y189048D01*
X159209Y189110D01*
X159268Y189174D01*
X159324Y189241D01*
X159377Y189311D01*
X159427Y189382D01*
X159473Y189456D01*
X159517Y189532D01*
X159556Y189610D01*
X159592Y189690D01*
X159625Y189771D01*
X159654Y189853D01*
X159679Y189937D01*
X159700Y190022D01*
X159718Y190107D01*
X159731Y190194D01*
X159741Y190280D01*
X159747Y190368D01*
X159749Y190455D01*
X159750Y190455D02*
X159750Y194350D01*
X159749Y194350D02*
X159747Y194437D01*
X159741Y194525D01*
X159731Y194611D01*
X159718Y194698D01*
X159700Y194783D01*
X159679Y194868D01*
X159654Y194952D01*
X159625Y195034D01*
X159592Y195115D01*
X159556Y195195D01*
X159517Y195273D01*
X159473Y195349D01*
X159427Y195423D01*
X159377Y195494D01*
X159324Y195564D01*
X159268Y195631D01*
X159209Y195695D01*
X159147Y195757D01*
X159083Y195816D01*
X159016Y195872D01*
X158946Y195925D01*
X158875Y195975D01*
X158801Y196021D01*
X158725Y196065D01*
X158647Y196104D01*
X158567Y196140D01*
X158486Y196173D01*
X158404Y196202D01*
X158320Y196227D01*
X158235Y196248D01*
X158150Y196266D01*
X158063Y196279D01*
X157977Y196289D01*
X157889Y196295D01*
X157802Y196297D01*
X155206Y196297D01*
D11*
X156858Y168000D02*
X156862Y168347D01*
X156875Y168694D01*
X156896Y169040D01*
X156926Y169386D01*
X156964Y169731D01*
X157011Y170075D01*
X157066Y170418D01*
X157130Y170759D01*
X157202Y171099D01*
X157282Y171436D01*
X157370Y171772D01*
X157467Y172105D01*
X157572Y172436D01*
X157685Y172764D01*
X157806Y173090D01*
X157934Y173412D01*
X158071Y173731D01*
X158216Y174046D01*
X158368Y174358D01*
X158528Y174666D01*
X158695Y174971D01*
X158870Y175270D01*
X159052Y175566D01*
X159241Y175857D01*
X159438Y176143D01*
X159641Y176424D01*
X159851Y176701D01*
X160068Y176972D01*
X160292Y177237D01*
X160521Y177497D01*
X160758Y177751D01*
X161000Y178000D01*
X161249Y178242D01*
X161503Y178479D01*
X161763Y178708D01*
X162028Y178932D01*
X162299Y179149D01*
X162576Y179359D01*
X162857Y179562D01*
X163143Y179759D01*
X163434Y179948D01*
X163730Y180130D01*
X164029Y180305D01*
X164334Y180472D01*
X164642Y180632D01*
X164954Y180784D01*
X165269Y180929D01*
X165588Y181066D01*
X165910Y181194D01*
X166236Y181315D01*
X166564Y181428D01*
X166895Y181533D01*
X167228Y181630D01*
X167564Y181718D01*
X167901Y181798D01*
X168241Y181870D01*
X168582Y181934D01*
X168925Y181989D01*
X169269Y182036D01*
X169614Y182074D01*
X169960Y182104D01*
X170306Y182125D01*
X170653Y182138D01*
X171000Y182142D01*
X171347Y182138D01*
X171694Y182125D01*
X172040Y182104D01*
X172386Y182074D01*
X172731Y182036D01*
X173075Y181989D01*
X173418Y181934D01*
X173759Y181870D01*
X174099Y181798D01*
X174436Y181718D01*
X174772Y181630D01*
X175105Y181533D01*
X175436Y181428D01*
X175764Y181315D01*
X176090Y181194D01*
X176412Y181066D01*
X176731Y180929D01*
X177046Y180784D01*
X177358Y180632D01*
X177666Y180472D01*
X177971Y180305D01*
X178270Y180130D01*
X178566Y179948D01*
X178857Y179759D01*
X179143Y179562D01*
X179424Y179359D01*
X179701Y179149D01*
X179972Y178932D01*
X180237Y178708D01*
X180497Y178479D01*
X180751Y178242D01*
X181000Y178000D01*
X181242Y177751D01*
X181479Y177497D01*
X181708Y177237D01*
X181932Y176972D01*
X182149Y176701D01*
X182359Y176424D01*
X182562Y176143D01*
X182759Y175857D01*
X182948Y175566D01*
X183130Y175270D01*
X183305Y174971D01*
X183472Y174666D01*
X183632Y174358D01*
X183784Y174046D01*
X183929Y173731D01*
X184066Y173412D01*
X184194Y173090D01*
X184315Y172764D01*
X184428Y172436D01*
X184533Y172105D01*
X184630Y171772D01*
X184718Y171436D01*
X184798Y171099D01*
X184870Y170759D01*
X184934Y170418D01*
X184989Y170075D01*
X185036Y169731D01*
X185074Y169386D01*
X185104Y169040D01*
X185125Y168694D01*
X185138Y168347D01*
X185142Y168000D01*
X185138Y167653D01*
X185125Y167306D01*
X185104Y166960D01*
X185074Y166614D01*
X185036Y166269D01*
X184989Y165925D01*
X184934Y165582D01*
X184870Y165241D01*
X184798Y164901D01*
X184718Y164564D01*
X184630Y164228D01*
X184533Y163895D01*
X184428Y163564D01*
X184315Y163236D01*
X184194Y162910D01*
X184066Y162588D01*
X183929Y162269D01*
X183784Y161954D01*
X183632Y161642D01*
X183472Y161334D01*
X183305Y161029D01*
X183130Y160730D01*
X182948Y160434D01*
X182759Y160143D01*
X182562Y159857D01*
X182359Y159576D01*
X182149Y159299D01*
X181932Y159028D01*
X181708Y158763D01*
X181479Y158503D01*
X181242Y158249D01*
X181000Y158000D01*
X180751Y157758D01*
X180497Y157521D01*
X180237Y157292D01*
X179972Y157068D01*
X179701Y156851D01*
X179424Y156641D01*
X179143Y156438D01*
X178857Y156241D01*
X178566Y156052D01*
X178270Y155870D01*
X177971Y155695D01*
X177666Y155528D01*
X177358Y155368D01*
X177046Y155216D01*
X176731Y155071D01*
X176412Y154934D01*
X176090Y154806D01*
X175764Y154685D01*
X175436Y154572D01*
X175105Y154467D01*
X174772Y154370D01*
X174436Y154282D01*
X174099Y154202D01*
X173759Y154130D01*
X173418Y154066D01*
X173075Y154011D01*
X172731Y153964D01*
X172386Y153926D01*
X172040Y153896D01*
X171694Y153875D01*
X171347Y153862D01*
X171000Y153858D01*
X170653Y153862D01*
X170306Y153875D01*
X169960Y153896D01*
X169614Y153926D01*
X169269Y153964D01*
X168925Y154011D01*
X168582Y154066D01*
X168241Y154130D01*
X167901Y154202D01*
X167564Y154282D01*
X167228Y154370D01*
X166895Y154467D01*
X166564Y154572D01*
X166236Y154685D01*
X165910Y154806D01*
X165588Y154934D01*
X165269Y155071D01*
X164954Y155216D01*
X164642Y155368D01*
X164334Y155528D01*
X164029Y155695D01*
X163730Y155870D01*
X163434Y156052D01*
X163143Y156241D01*
X162857Y156438D01*
X162576Y156641D01*
X162299Y156851D01*
X162028Y157068D01*
X161763Y157292D01*
X161503Y157521D01*
X161249Y157758D01*
X161000Y158000D01*
X160758Y158249D01*
X160521Y158503D01*
X160292Y158763D01*
X160068Y159028D01*
X159851Y159299D01*
X159641Y159576D01*
X159438Y159857D01*
X159241Y160143D01*
X159052Y160434D01*
X158870Y160730D01*
X158695Y161029D01*
X158528Y161334D01*
X158368Y161642D01*
X158216Y161954D01*
X158071Y162269D01*
X157934Y162588D01*
X157806Y162910D01*
X157685Y163236D01*
X157572Y163564D01*
X157467Y163895D01*
X157370Y164228D01*
X157282Y164564D01*
X157202Y164901D01*
X157130Y165241D01*
X157066Y165582D01*
X157011Y165925D01*
X156964Y166269D01*
X156926Y166614D01*
X156896Y166960D01*
X156875Y167306D01*
X156862Y167653D01*
X156858Y168000D01*
D10*
X44948Y206999D02*
X43001Y206999D01*
X43001Y200508D01*
X46896Y200508D01*
X46995Y200510D01*
X47095Y200516D01*
X47194Y200525D01*
X47292Y200538D01*
X47390Y200555D01*
X47488Y200576D01*
X47584Y200601D01*
X47679Y200629D01*
X47773Y200661D01*
X47866Y200696D01*
X47958Y200735D01*
X48048Y200778D01*
X48136Y200823D01*
X48223Y200873D01*
X48307Y200925D01*
X48390Y200981D01*
X48470Y201039D01*
X48548Y201101D01*
X48623Y201166D01*
X48696Y201234D01*
X48766Y201304D01*
X48834Y201377D01*
X48899Y201452D01*
X48961Y201530D01*
X49019Y201610D01*
X49075Y201693D01*
X49127Y201777D01*
X49177Y201864D01*
X49222Y201952D01*
X49265Y202042D01*
X49304Y202134D01*
X49339Y202227D01*
X49371Y202321D01*
X49399Y202416D01*
X49424Y202512D01*
X49445Y202610D01*
X49462Y202708D01*
X49475Y202806D01*
X49484Y202905D01*
X49490Y203005D01*
X49492Y203104D01*
X49492Y209596D01*
X49490Y209695D01*
X49484Y209795D01*
X49475Y209894D01*
X49462Y209992D01*
X49445Y210090D01*
X49424Y210188D01*
X49399Y210284D01*
X49371Y210379D01*
X49339Y210473D01*
X49304Y210566D01*
X49265Y210658D01*
X49222Y210748D01*
X49177Y210836D01*
X49127Y210923D01*
X49075Y211007D01*
X49019Y211090D01*
X48961Y211170D01*
X48899Y211248D01*
X48834Y211323D01*
X48766Y211396D01*
X48696Y211466D01*
X48623Y211534D01*
X48548Y211599D01*
X48470Y211661D01*
X48390Y211719D01*
X48307Y211775D01*
X48223Y211827D01*
X48136Y211877D01*
X48048Y211922D01*
X47958Y211965D01*
X47866Y212004D01*
X47773Y212039D01*
X47679Y212071D01*
X47584Y212099D01*
X47488Y212124D01*
X47390Y212145D01*
X47292Y212162D01*
X47194Y212175D01*
X47095Y212184D01*
X46995Y212190D01*
X46896Y212192D01*
X43001Y212192D01*
X37300Y212192D02*
X37300Y200508D01*
X30809Y200508D02*
X37300Y212192D01*
X30809Y212192D02*
X30809Y200508D01*
X25108Y200508D02*
X25108Y212192D01*
X21863Y212192D01*
X21750Y212190D01*
X21637Y212184D01*
X21524Y212174D01*
X21411Y212160D01*
X21299Y212143D01*
X21188Y212121D01*
X21078Y212096D01*
X20968Y212066D01*
X20860Y212033D01*
X20753Y211996D01*
X20647Y211956D01*
X20543Y211911D01*
X20440Y211863D01*
X20339Y211812D01*
X20240Y211757D01*
X20143Y211699D01*
X20048Y211637D01*
X19955Y211572D01*
X19865Y211504D01*
X19777Y211433D01*
X19691Y211358D01*
X19608Y211281D01*
X19528Y211201D01*
X19451Y211118D01*
X19376Y211032D01*
X19305Y210944D01*
X19237Y210854D01*
X19172Y210761D01*
X19110Y210666D01*
X19052Y210569D01*
X18997Y210470D01*
X18946Y210369D01*
X18898Y210266D01*
X18853Y210162D01*
X18813Y210056D01*
X18776Y209949D01*
X18743Y209841D01*
X18713Y209731D01*
X18688Y209621D01*
X18666Y209510D01*
X18649Y209398D01*
X18635Y209285D01*
X18625Y209172D01*
X18619Y209059D01*
X18617Y208946D01*
X18617Y203754D01*
X18619Y203641D01*
X18625Y203528D01*
X18635Y203415D01*
X18649Y203302D01*
X18666Y203190D01*
X18688Y203079D01*
X18713Y202969D01*
X18743Y202859D01*
X18776Y202751D01*
X18813Y202644D01*
X18853Y202538D01*
X18898Y202434D01*
X18946Y202331D01*
X18997Y202230D01*
X19052Y202131D01*
X19110Y202034D01*
X19172Y201939D01*
X19237Y201846D01*
X19305Y201756D01*
X19376Y201668D01*
X19451Y201582D01*
X19528Y201499D01*
X19608Y201419D01*
X19691Y201342D01*
X19777Y201267D01*
X19865Y201196D01*
X19955Y201128D01*
X20048Y201063D01*
X20143Y201001D01*
X20240Y200943D01*
X20339Y200888D01*
X20440Y200837D01*
X20543Y200789D01*
X20647Y200744D01*
X20753Y200704D01*
X20860Y200667D01*
X20968Y200634D01*
X21078Y200604D01*
X21188Y200579D01*
X21299Y200557D01*
X21411Y200540D01*
X21524Y200526D01*
X21637Y200516D01*
X21750Y200510D01*
X21863Y200508D01*
X25108Y200508D01*
D11*
X10000Y240000D02*
X10006Y240491D01*
X10024Y240981D01*
X10054Y241471D01*
X10096Y241960D01*
X10150Y242448D01*
X10216Y242935D01*
X10294Y243419D01*
X10384Y243902D01*
X10486Y244382D01*
X10599Y244860D01*
X10724Y245334D01*
X10861Y245806D01*
X11009Y246274D01*
X11169Y246738D01*
X11340Y247198D01*
X11522Y247654D01*
X11716Y248105D01*
X11920Y248551D01*
X12136Y248992D01*
X12362Y249428D01*
X12598Y249858D01*
X12845Y250282D01*
X13103Y250700D01*
X13371Y251111D01*
X13648Y251516D01*
X13936Y251914D01*
X14233Y252305D01*
X14540Y252688D01*
X14856Y253063D01*
X15181Y253431D01*
X15515Y253791D01*
X15858Y254142D01*
X16209Y254485D01*
X16569Y254819D01*
X16937Y255144D01*
X17312Y255460D01*
X17695Y255767D01*
X18086Y256064D01*
X18484Y256352D01*
X18889Y256629D01*
X19300Y256897D01*
X19718Y257155D01*
X20142Y257402D01*
X20572Y257638D01*
X21008Y257864D01*
X21449Y258080D01*
X21895Y258284D01*
X22346Y258478D01*
X22802Y258660D01*
X23262Y258831D01*
X23726Y258991D01*
X24194Y259139D01*
X24666Y259276D01*
X25140Y259401D01*
X25618Y259514D01*
X26098Y259616D01*
X26581Y259706D01*
X27065Y259784D01*
X27552Y259850D01*
X28040Y259904D01*
X28529Y259946D01*
X29019Y259976D01*
X29509Y259994D01*
X30000Y260000D01*
X30491Y259994D01*
X30981Y259976D01*
X31471Y259946D01*
X31960Y259904D01*
X32448Y259850D01*
X32935Y259784D01*
X33419Y259706D01*
X33902Y259616D01*
X34382Y259514D01*
X34860Y259401D01*
X35334Y259276D01*
X35806Y259139D01*
X36274Y258991D01*
X36738Y258831D01*
X37198Y258660D01*
X37654Y258478D01*
X38105Y258284D01*
X38551Y258080D01*
X38992Y257864D01*
X39428Y257638D01*
X39858Y257402D01*
X40282Y257155D01*
X40700Y256897D01*
X41111Y256629D01*
X41516Y256352D01*
X41914Y256064D01*
X42305Y255767D01*
X42688Y255460D01*
X43063Y255144D01*
X43431Y254819D01*
X43791Y254485D01*
X44142Y254142D01*
X44485Y253791D01*
X44819Y253431D01*
X45144Y253063D01*
X45460Y252688D01*
X45767Y252305D01*
X46064Y251914D01*
X46352Y251516D01*
X46629Y251111D01*
X46897Y250700D01*
X47155Y250282D01*
X47402Y249858D01*
X47638Y249428D01*
X47864Y248992D01*
X48080Y248551D01*
X48284Y248105D01*
X48478Y247654D01*
X48660Y247198D01*
X48831Y246738D01*
X48991Y246274D01*
X49139Y245806D01*
X49276Y245334D01*
X49401Y244860D01*
X49514Y244382D01*
X49616Y243902D01*
X49706Y243419D01*
X49784Y242935D01*
X49850Y242448D01*
X49904Y241960D01*
X49946Y241471D01*
X49976Y240981D01*
X49994Y240491D01*
X50000Y240000D01*
X49994Y239509D01*
X49976Y239019D01*
X49946Y238529D01*
X49904Y238040D01*
X49850Y237552D01*
X49784Y237065D01*
X49706Y236581D01*
X49616Y236098D01*
X49514Y235618D01*
X49401Y235140D01*
X49276Y234666D01*
X49139Y234194D01*
X48991Y233726D01*
X48831Y233262D01*
X48660Y232802D01*
X48478Y232346D01*
X48284Y231895D01*
X48080Y231449D01*
X47864Y231008D01*
X47638Y230572D01*
X47402Y230142D01*
X47155Y229718D01*
X46897Y229300D01*
X46629Y228889D01*
X46352Y228484D01*
X46064Y228086D01*
X45767Y227695D01*
X45460Y227312D01*
X45144Y226937D01*
X44819Y226569D01*
X44485Y226209D01*
X44142Y225858D01*
X43791Y225515D01*
X43431Y225181D01*
X43063Y224856D01*
X42688Y224540D01*
X42305Y224233D01*
X41914Y223936D01*
X41516Y223648D01*
X41111Y223371D01*
X40700Y223103D01*
X40282Y222845D01*
X39858Y222598D01*
X39428Y222362D01*
X38992Y222136D01*
X38551Y221920D01*
X38105Y221716D01*
X37654Y221522D01*
X37198Y221340D01*
X36738Y221169D01*
X36274Y221009D01*
X35806Y220861D01*
X35334Y220724D01*
X34860Y220599D01*
X34382Y220486D01*
X33902Y220384D01*
X33419Y220294D01*
X32935Y220216D01*
X32448Y220150D01*
X31960Y220096D01*
X31471Y220054D01*
X30981Y220024D01*
X30491Y220006D01*
X30000Y220000D01*
X29509Y220006D01*
X29019Y220024D01*
X28529Y220054D01*
X28040Y220096D01*
X27552Y220150D01*
X27065Y220216D01*
X26581Y220294D01*
X26098Y220384D01*
X25618Y220486D01*
X25140Y220599D01*
X24666Y220724D01*
X24194Y220861D01*
X23726Y221009D01*
X23262Y221169D01*
X22802Y221340D01*
X22346Y221522D01*
X21895Y221716D01*
X21449Y221920D01*
X21008Y222136D01*
X20572Y222362D01*
X20142Y222598D01*
X19718Y222845D01*
X19300Y223103D01*
X18889Y223371D01*
X18484Y223648D01*
X18086Y223936D01*
X17695Y224233D01*
X17312Y224540D01*
X16937Y224856D01*
X16569Y225181D01*
X16209Y225515D01*
X15858Y225858D01*
X15515Y226209D01*
X15181Y226569D01*
X14856Y226937D01*
X14540Y227312D01*
X14233Y227695D01*
X13936Y228086D01*
X13648Y228484D01*
X13371Y228889D01*
X13103Y229300D01*
X12845Y229718D01*
X12598Y230142D01*
X12362Y230572D01*
X12136Y231008D01*
X11920Y231449D01*
X11716Y231895D01*
X11522Y232346D01*
X11340Y232802D01*
X11169Y233262D01*
X11009Y233726D01*
X10861Y234194D01*
X10724Y234666D01*
X10599Y235140D01*
X10486Y235618D01*
X10384Y236098D01*
X10294Y236581D01*
X10216Y237065D01*
X10150Y237552D01*
X10096Y238040D01*
X10054Y238529D01*
X10024Y239019D01*
X10006Y239509D01*
X10000Y240000D01*
D10*
X124492Y107192D02*
X120597Y95508D01*
X116703Y107192D01*
X110565Y95508D02*
X107969Y95508D01*
X110565Y95508D02*
X110652Y95510D01*
X110740Y95516D01*
X110826Y95526D01*
X110913Y95539D01*
X110998Y95557D01*
X111083Y95578D01*
X111167Y95603D01*
X111249Y95632D01*
X111330Y95665D01*
X111410Y95701D01*
X111488Y95740D01*
X111564Y95784D01*
X111638Y95830D01*
X111709Y95880D01*
X111779Y95933D01*
X111846Y95989D01*
X111910Y96048D01*
X111972Y96110D01*
X112031Y96174D01*
X112087Y96241D01*
X112140Y96311D01*
X112190Y96382D01*
X112236Y96456D01*
X112280Y96532D01*
X112319Y96610D01*
X112355Y96690D01*
X112388Y96771D01*
X112417Y96853D01*
X112442Y96937D01*
X112463Y97022D01*
X112481Y97107D01*
X112494Y97194D01*
X112504Y97280D01*
X112510Y97368D01*
X112512Y97455D01*
X112513Y97455D02*
X112513Y101350D01*
X112512Y101350D02*
X112510Y101437D01*
X112504Y101525D01*
X112494Y101611D01*
X112481Y101698D01*
X112463Y101783D01*
X112442Y101868D01*
X112417Y101952D01*
X112388Y102034D01*
X112355Y102115D01*
X112319Y102195D01*
X112280Y102273D01*
X112236Y102349D01*
X112190Y102423D01*
X112140Y102494D01*
X112087Y102564D01*
X112031Y102631D01*
X111972Y102695D01*
X111910Y102757D01*
X111846Y102816D01*
X111779Y102872D01*
X111709Y102925D01*
X111638Y102975D01*
X111564Y103021D01*
X111488Y103065D01*
X111410Y103104D01*
X111330Y103140D01*
X111249Y103173D01*
X111167Y103202D01*
X111083Y103227D01*
X110998Y103248D01*
X110913Y103266D01*
X110826Y103279D01*
X110740Y103289D01*
X110652Y103295D01*
X110565Y103297D01*
X107969Y103297D01*
X101802Y95508D02*
X99206Y95508D01*
X101802Y95508D02*
X101889Y95510D01*
X101977Y95516D01*
X102063Y95526D01*
X102150Y95539D01*
X102235Y95557D01*
X102320Y95578D01*
X102404Y95603D01*
X102486Y95632D01*
X102567Y95665D01*
X102647Y95701D01*
X102725Y95740D01*
X102801Y95784D01*
X102875Y95830D01*
X102946Y95880D01*
X103016Y95933D01*
X103083Y95989D01*
X103147Y96048D01*
X103209Y96110D01*
X103268Y96174D01*
X103324Y96241D01*
X103377Y96311D01*
X103427Y96382D01*
X103473Y96456D01*
X103517Y96532D01*
X103556Y96610D01*
X103592Y96690D01*
X103625Y96771D01*
X103654Y96853D01*
X103679Y96937D01*
X103700Y97022D01*
X103718Y97107D01*
X103731Y97194D01*
X103741Y97280D01*
X103747Y97368D01*
X103749Y97455D01*
X103750Y97455D02*
X103750Y101350D01*
X103749Y101350D02*
X103747Y101437D01*
X103741Y101525D01*
X103731Y101611D01*
X103718Y101698D01*
X103700Y101783D01*
X103679Y101868D01*
X103654Y101952D01*
X103625Y102034D01*
X103592Y102115D01*
X103556Y102195D01*
X103517Y102273D01*
X103473Y102349D01*
X103427Y102423D01*
X103377Y102494D01*
X103324Y102564D01*
X103268Y102631D01*
X103209Y102695D01*
X103147Y102757D01*
X103083Y102816D01*
X103016Y102872D01*
X102946Y102925D01*
X102875Y102975D01*
X102801Y103021D01*
X102725Y103065D01*
X102647Y103104D01*
X102567Y103140D01*
X102486Y103173D01*
X102404Y103202D01*
X102320Y103227D01*
X102235Y103248D01*
X102150Y103266D01*
X102063Y103279D01*
X101977Y103289D01*
X101889Y103295D01*
X101802Y103297D01*
X99206Y103297D01*
D11*
X100858Y75000D02*
X100862Y75347D01*
X100875Y75694D01*
X100896Y76040D01*
X100926Y76386D01*
X100964Y76731D01*
X101011Y77075D01*
X101066Y77418D01*
X101130Y77759D01*
X101202Y78099D01*
X101282Y78436D01*
X101370Y78772D01*
X101467Y79105D01*
X101572Y79436D01*
X101685Y79764D01*
X101806Y80090D01*
X101934Y80412D01*
X102071Y80731D01*
X102216Y81046D01*
X102368Y81358D01*
X102528Y81666D01*
X102695Y81971D01*
X102870Y82270D01*
X103052Y82566D01*
X103241Y82857D01*
X103438Y83143D01*
X103641Y83424D01*
X103851Y83701D01*
X104068Y83972D01*
X104292Y84237D01*
X104521Y84497D01*
X104758Y84751D01*
X105000Y85000D01*
X105249Y85242D01*
X105503Y85479D01*
X105763Y85708D01*
X106028Y85932D01*
X106299Y86149D01*
X106576Y86359D01*
X106857Y86562D01*
X107143Y86759D01*
X107434Y86948D01*
X107730Y87130D01*
X108029Y87305D01*
X108334Y87472D01*
X108642Y87632D01*
X108954Y87784D01*
X109269Y87929D01*
X109588Y88066D01*
X109910Y88194D01*
X110236Y88315D01*
X110564Y88428D01*
X110895Y88533D01*
X111228Y88630D01*
X111564Y88718D01*
X111901Y88798D01*
X112241Y88870D01*
X112582Y88934D01*
X112925Y88989D01*
X113269Y89036D01*
X113614Y89074D01*
X113960Y89104D01*
X114306Y89125D01*
X114653Y89138D01*
X115000Y89142D01*
X115347Y89138D01*
X115694Y89125D01*
X116040Y89104D01*
X116386Y89074D01*
X116731Y89036D01*
X117075Y88989D01*
X117418Y88934D01*
X117759Y88870D01*
X118099Y88798D01*
X118436Y88718D01*
X118772Y88630D01*
X119105Y88533D01*
X119436Y88428D01*
X119764Y88315D01*
X120090Y88194D01*
X120412Y88066D01*
X120731Y87929D01*
X121046Y87784D01*
X121358Y87632D01*
X121666Y87472D01*
X121971Y87305D01*
X122270Y87130D01*
X122566Y86948D01*
X122857Y86759D01*
X123143Y86562D01*
X123424Y86359D01*
X123701Y86149D01*
X123972Y85932D01*
X124237Y85708D01*
X124497Y85479D01*
X124751Y85242D01*
X125000Y85000D01*
X125242Y84751D01*
X125479Y84497D01*
X125708Y84237D01*
X125932Y83972D01*
X126149Y83701D01*
X126359Y83424D01*
X126562Y83143D01*
X126759Y82857D01*
X126948Y82566D01*
X127130Y82270D01*
X127305Y81971D01*
X127472Y81666D01*
X127632Y81358D01*
X127784Y81046D01*
X127929Y80731D01*
X128066Y80412D01*
X128194Y80090D01*
X128315Y79764D01*
X128428Y79436D01*
X128533Y79105D01*
X128630Y78772D01*
X128718Y78436D01*
X128798Y78099D01*
X128870Y77759D01*
X128934Y77418D01*
X128989Y77075D01*
X129036Y76731D01*
X129074Y76386D01*
X129104Y76040D01*
X129125Y75694D01*
X129138Y75347D01*
X129142Y75000D01*
X129138Y74653D01*
X129125Y74306D01*
X129104Y73960D01*
X129074Y73614D01*
X129036Y73269D01*
X128989Y72925D01*
X128934Y72582D01*
X128870Y72241D01*
X128798Y71901D01*
X128718Y71564D01*
X128630Y71228D01*
X128533Y70895D01*
X128428Y70564D01*
X128315Y70236D01*
X128194Y69910D01*
X128066Y69588D01*
X127929Y69269D01*
X127784Y68954D01*
X127632Y68642D01*
X127472Y68334D01*
X127305Y68029D01*
X127130Y67730D01*
X126948Y67434D01*
X126759Y67143D01*
X126562Y66857D01*
X126359Y66576D01*
X126149Y66299D01*
X125932Y66028D01*
X125708Y65763D01*
X125479Y65503D01*
X125242Y65249D01*
X125000Y65000D01*
X124751Y64758D01*
X124497Y64521D01*
X124237Y64292D01*
X123972Y64068D01*
X123701Y63851D01*
X123424Y63641D01*
X123143Y63438D01*
X122857Y63241D01*
X122566Y63052D01*
X122270Y62870D01*
X121971Y62695D01*
X121666Y62528D01*
X121358Y62368D01*
X121046Y62216D01*
X120731Y62071D01*
X120412Y61934D01*
X120090Y61806D01*
X119764Y61685D01*
X119436Y61572D01*
X119105Y61467D01*
X118772Y61370D01*
X118436Y61282D01*
X118099Y61202D01*
X117759Y61130D01*
X117418Y61066D01*
X117075Y61011D01*
X116731Y60964D01*
X116386Y60926D01*
X116040Y60896D01*
X115694Y60875D01*
X115347Y60862D01*
X115000Y60858D01*
X114653Y60862D01*
X114306Y60875D01*
X113960Y60896D01*
X113614Y60926D01*
X113269Y60964D01*
X112925Y61011D01*
X112582Y61066D01*
X112241Y61130D01*
X111901Y61202D01*
X111564Y61282D01*
X111228Y61370D01*
X110895Y61467D01*
X110564Y61572D01*
X110236Y61685D01*
X109910Y61806D01*
X109588Y61934D01*
X109269Y62071D01*
X108954Y62216D01*
X108642Y62368D01*
X108334Y62528D01*
X108029Y62695D01*
X107730Y62870D01*
X107434Y63052D01*
X107143Y63241D01*
X106857Y63438D01*
X106576Y63641D01*
X106299Y63851D01*
X106028Y64068D01*
X105763Y64292D01*
X105503Y64521D01*
X105249Y64758D01*
X105000Y65000D01*
X104758Y65249D01*
X104521Y65503D01*
X104292Y65763D01*
X104068Y66028D01*
X103851Y66299D01*
X103641Y66576D01*
X103438Y66857D01*
X103241Y67143D01*
X103052Y67434D01*
X102870Y67730D01*
X102695Y68029D01*
X102528Y68334D01*
X102368Y68642D01*
X102216Y68954D01*
X102071Y69269D01*
X101934Y69588D01*
X101806Y69910D01*
X101685Y70236D01*
X101572Y70564D01*
X101467Y70895D01*
X101370Y71228D01*
X101282Y71564D01*
X101202Y71901D01*
X101130Y72241D01*
X101066Y72582D01*
X101011Y72925D01*
X100964Y73269D01*
X100926Y73614D01*
X100896Y73960D01*
X100875Y74306D01*
X100862Y74653D01*
X100858Y75000D01*
M02*
