G04 EAGLE Gerber RS-274X export*
G75*
%MOMM*%
%FSLAX34Y34*%
%LPD*%
%INSilkscreen Top*%
%IPPOS*%
%AMOC8*
5,1,8,0,0,1.08239X$1,22.5*%
G01*
%ADD10C,0.101600*%
%ADD11C,0.152400*%
%ADD12C,0.076200*%
%ADD13R,0.150000X0.300000*%
%ADD14R,0.300000X0.300000*%
%ADD15C,0.406400*%
%ADD16R,0.406400X0.584200*%
%ADD17C,0.127000*%
%ADD18C,0.050800*%


D10*
X89001Y161208D02*
X86404Y161208D01*
X86305Y161210D01*
X86205Y161216D01*
X86106Y161225D01*
X86008Y161238D01*
X85910Y161255D01*
X85812Y161276D01*
X85716Y161301D01*
X85621Y161329D01*
X85527Y161361D01*
X85434Y161396D01*
X85342Y161435D01*
X85252Y161478D01*
X85164Y161523D01*
X85077Y161573D01*
X84993Y161625D01*
X84910Y161681D01*
X84830Y161739D01*
X84752Y161801D01*
X84677Y161866D01*
X84604Y161934D01*
X84534Y162004D01*
X84466Y162077D01*
X84401Y162152D01*
X84339Y162230D01*
X84281Y162310D01*
X84225Y162393D01*
X84173Y162477D01*
X84123Y162564D01*
X84078Y162652D01*
X84035Y162742D01*
X83996Y162834D01*
X83961Y162927D01*
X83929Y163021D01*
X83901Y163116D01*
X83876Y163212D01*
X83855Y163310D01*
X83838Y163408D01*
X83825Y163506D01*
X83816Y163605D01*
X83810Y163705D01*
X83808Y163804D01*
X83808Y170296D01*
X83810Y170395D01*
X83816Y170495D01*
X83825Y170594D01*
X83838Y170692D01*
X83855Y170790D01*
X83876Y170888D01*
X83901Y170984D01*
X83929Y171079D01*
X83961Y171173D01*
X83996Y171266D01*
X84035Y171358D01*
X84078Y171448D01*
X84123Y171536D01*
X84173Y171623D01*
X84225Y171707D01*
X84281Y171790D01*
X84339Y171870D01*
X84401Y171948D01*
X84466Y172023D01*
X84534Y172096D01*
X84604Y172166D01*
X84677Y172234D01*
X84752Y172299D01*
X84830Y172361D01*
X84910Y172419D01*
X84993Y172475D01*
X85077Y172527D01*
X85164Y172577D01*
X85252Y172622D01*
X85342Y172665D01*
X85434Y172704D01*
X85526Y172739D01*
X85621Y172771D01*
X85716Y172799D01*
X85812Y172824D01*
X85910Y172845D01*
X86008Y172862D01*
X86106Y172875D01*
X86205Y172884D01*
X86305Y172890D01*
X86404Y172892D01*
X89001Y172892D01*
X93366Y170296D02*
X96612Y172892D01*
X96612Y161208D01*
X99857Y161208D02*
X93366Y161208D01*
D11*
X115950Y42950D02*
X186050Y42950D01*
X115950Y42950D02*
X115950Y113050D01*
X182500Y113050D01*
X186050Y109500D02*
X186050Y42950D01*
X186050Y109500D02*
X182500Y113050D01*
X174840Y105432D02*
X174842Y105551D01*
X174848Y105671D01*
X174858Y105790D01*
X174872Y105908D01*
X174890Y106026D01*
X174911Y106144D01*
X174937Y106260D01*
X174966Y106376D01*
X175000Y106491D01*
X175037Y106604D01*
X175078Y106716D01*
X175122Y106827D01*
X175170Y106937D01*
X175222Y107044D01*
X175277Y107150D01*
X175336Y107254D01*
X175399Y107356D01*
X175464Y107455D01*
X175533Y107553D01*
X175605Y107648D01*
X175680Y107741D01*
X175759Y107831D01*
X175840Y107919D01*
X175924Y108003D01*
X176011Y108085D01*
X176100Y108164D01*
X176192Y108240D01*
X176287Y108313D01*
X176384Y108383D01*
X176483Y108449D01*
X176585Y108512D01*
X176688Y108572D01*
X176793Y108628D01*
X176900Y108681D01*
X177009Y108730D01*
X177120Y108776D01*
X177232Y108817D01*
X177345Y108855D01*
X177459Y108890D01*
X177575Y108920D01*
X177691Y108947D01*
X177808Y108969D01*
X177926Y108988D01*
X178045Y109003D01*
X178164Y109014D01*
X178283Y109021D01*
X178402Y109024D01*
X178522Y109023D01*
X178641Y109018D01*
X178760Y109009D01*
X178879Y108996D01*
X178997Y108979D01*
X179114Y108959D01*
X179231Y108934D01*
X179347Y108905D01*
X179462Y108873D01*
X179576Y108837D01*
X179689Y108797D01*
X179800Y108753D01*
X179909Y108706D01*
X180017Y108655D01*
X180124Y108601D01*
X180228Y108543D01*
X180330Y108481D01*
X180431Y108417D01*
X180529Y108348D01*
X180625Y108277D01*
X180718Y108203D01*
X180809Y108125D01*
X180897Y108045D01*
X180982Y107961D01*
X181065Y107875D01*
X181145Y107786D01*
X181222Y107695D01*
X181295Y107601D01*
X181366Y107504D01*
X181433Y107406D01*
X181497Y107305D01*
X181558Y107202D01*
X181615Y107097D01*
X181668Y106991D01*
X181718Y106882D01*
X181765Y106772D01*
X181807Y106661D01*
X181846Y106548D01*
X181882Y106434D01*
X181913Y106318D01*
X181940Y106202D01*
X181964Y106085D01*
X181984Y105967D01*
X182000Y105849D01*
X182012Y105730D01*
X182020Y105611D01*
X182024Y105492D01*
X182024Y105372D01*
X182020Y105253D01*
X182012Y105134D01*
X182000Y105015D01*
X181984Y104897D01*
X181964Y104779D01*
X181940Y104662D01*
X181913Y104546D01*
X181882Y104430D01*
X181846Y104316D01*
X181807Y104203D01*
X181765Y104092D01*
X181718Y103982D01*
X181668Y103873D01*
X181615Y103767D01*
X181558Y103662D01*
X181497Y103559D01*
X181433Y103458D01*
X181366Y103360D01*
X181295Y103263D01*
X181222Y103169D01*
X181145Y103078D01*
X181065Y102989D01*
X180982Y102903D01*
X180897Y102819D01*
X180809Y102739D01*
X180718Y102661D01*
X180625Y102587D01*
X180529Y102516D01*
X180431Y102447D01*
X180330Y102383D01*
X180228Y102321D01*
X180124Y102263D01*
X180017Y102209D01*
X179909Y102158D01*
X179800Y102111D01*
X179689Y102067D01*
X179576Y102027D01*
X179462Y101991D01*
X179347Y101959D01*
X179231Y101930D01*
X179114Y101905D01*
X178997Y101885D01*
X178879Y101868D01*
X178760Y101855D01*
X178641Y101846D01*
X178522Y101841D01*
X178402Y101840D01*
X178283Y101843D01*
X178164Y101850D01*
X178045Y101861D01*
X177926Y101876D01*
X177808Y101895D01*
X177691Y101917D01*
X177575Y101944D01*
X177459Y101974D01*
X177345Y102009D01*
X177232Y102047D01*
X177120Y102088D01*
X177009Y102134D01*
X176900Y102183D01*
X176793Y102236D01*
X176688Y102292D01*
X176585Y102352D01*
X176483Y102415D01*
X176384Y102481D01*
X176287Y102551D01*
X176192Y102624D01*
X176100Y102700D01*
X176011Y102779D01*
X175924Y102861D01*
X175840Y102945D01*
X175759Y103033D01*
X175680Y103123D01*
X175605Y103216D01*
X175533Y103311D01*
X175464Y103409D01*
X175399Y103508D01*
X175336Y103610D01*
X175277Y103714D01*
X175222Y103820D01*
X175170Y103927D01*
X175122Y104037D01*
X175078Y104148D01*
X175037Y104260D01*
X175000Y104373D01*
X174966Y104488D01*
X174937Y104604D01*
X174911Y104720D01*
X174890Y104838D01*
X174872Y104956D01*
X174858Y105074D01*
X174848Y105193D01*
X174842Y105313D01*
X174840Y105432D01*
D12*
X202181Y91311D02*
X209547Y91311D01*
X209547Y92129D02*
X209547Y90492D01*
X202181Y90492D02*
X202181Y92129D01*
X209547Y96731D02*
X209547Y98367D01*
X209547Y96731D02*
X209545Y96653D01*
X209540Y96575D01*
X209530Y96498D01*
X209517Y96421D01*
X209501Y96345D01*
X209481Y96270D01*
X209457Y96196D01*
X209430Y96123D01*
X209399Y96051D01*
X209365Y95981D01*
X209328Y95913D01*
X209287Y95846D01*
X209243Y95781D01*
X209197Y95719D01*
X209147Y95659D01*
X209095Y95601D01*
X209040Y95546D01*
X208982Y95494D01*
X208922Y95444D01*
X208860Y95398D01*
X208795Y95354D01*
X208729Y95313D01*
X208660Y95276D01*
X208590Y95242D01*
X208518Y95211D01*
X208445Y95184D01*
X208371Y95160D01*
X208296Y95140D01*
X208220Y95124D01*
X208143Y95111D01*
X208066Y95101D01*
X207988Y95096D01*
X207910Y95094D01*
X203818Y95094D01*
X203738Y95096D01*
X203658Y95102D01*
X203578Y95112D01*
X203499Y95125D01*
X203420Y95143D01*
X203343Y95164D01*
X203267Y95190D01*
X203192Y95219D01*
X203118Y95251D01*
X203046Y95287D01*
X202976Y95327D01*
X202909Y95370D01*
X202843Y95416D01*
X202780Y95466D01*
X202719Y95518D01*
X202660Y95573D01*
X202605Y95632D01*
X202553Y95692D01*
X202503Y95756D01*
X202457Y95821D01*
X202414Y95889D01*
X202374Y95959D01*
X202338Y96031D01*
X202306Y96105D01*
X202277Y96179D01*
X202252Y96256D01*
X202230Y96333D01*
X202212Y96412D01*
X202199Y96491D01*
X202189Y96570D01*
X202183Y96651D01*
X202181Y96731D01*
X202181Y98367D01*
X203818Y101213D02*
X202181Y103259D01*
X209547Y103259D01*
X209547Y101213D02*
X209547Y105305D01*
D13*
X155000Y229500D03*
X167000Y229500D03*
D14*
X161000Y229500D03*
D10*
X147792Y215808D02*
X136108Y215808D01*
X147792Y215808D02*
X147792Y221001D01*
X147792Y225714D02*
X147792Y230907D01*
X147792Y225714D02*
X136108Y225714D01*
X136108Y230907D01*
X141301Y229609D02*
X141301Y225714D01*
X136108Y235597D02*
X147792Y235597D01*
X136108Y235597D02*
X136108Y238843D01*
X136110Y238956D01*
X136116Y239069D01*
X136126Y239182D01*
X136140Y239295D01*
X136157Y239407D01*
X136179Y239518D01*
X136204Y239628D01*
X136234Y239738D01*
X136267Y239846D01*
X136304Y239953D01*
X136344Y240059D01*
X136389Y240163D01*
X136437Y240266D01*
X136488Y240367D01*
X136543Y240466D01*
X136601Y240563D01*
X136663Y240658D01*
X136728Y240751D01*
X136796Y240841D01*
X136867Y240929D01*
X136942Y241015D01*
X137019Y241098D01*
X137099Y241178D01*
X137182Y241255D01*
X137268Y241330D01*
X137356Y241401D01*
X137446Y241469D01*
X137539Y241534D01*
X137634Y241596D01*
X137731Y241654D01*
X137830Y241709D01*
X137931Y241760D01*
X138034Y241808D01*
X138138Y241853D01*
X138244Y241893D01*
X138351Y241930D01*
X138459Y241963D01*
X138569Y241993D01*
X138679Y242018D01*
X138790Y242040D01*
X138902Y242057D01*
X139015Y242071D01*
X139128Y242081D01*
X139241Y242087D01*
X139354Y242089D01*
X144546Y242089D01*
X144659Y242087D01*
X144772Y242081D01*
X144885Y242071D01*
X144998Y242057D01*
X145110Y242040D01*
X145221Y242018D01*
X145331Y241993D01*
X145441Y241963D01*
X145549Y241930D01*
X145656Y241893D01*
X145762Y241853D01*
X145866Y241808D01*
X145969Y241760D01*
X146070Y241709D01*
X146169Y241654D01*
X146266Y241596D01*
X146361Y241534D01*
X146454Y241469D01*
X146544Y241401D01*
X146632Y241330D01*
X146718Y241255D01*
X146801Y241178D01*
X146881Y241098D01*
X146958Y241015D01*
X147033Y240929D01*
X147104Y240841D01*
X147172Y240751D01*
X147237Y240658D01*
X147299Y240563D01*
X147357Y240466D01*
X147412Y240367D01*
X147463Y240266D01*
X147511Y240163D01*
X147556Y240059D01*
X147596Y239953D01*
X147633Y239846D01*
X147666Y239738D01*
X147696Y239628D01*
X147721Y239518D01*
X147743Y239407D01*
X147760Y239295D01*
X147774Y239182D01*
X147784Y239069D01*
X147790Y238956D01*
X147792Y238843D01*
X147792Y235597D01*
X138704Y247408D02*
X136108Y250654D01*
X147792Y250654D01*
X147792Y253899D02*
X147792Y247408D01*
D13*
X30000Y189500D03*
X42000Y189500D03*
D14*
X36000Y189500D03*
D10*
X22792Y175808D02*
X11108Y175808D01*
X22792Y175808D02*
X22792Y181001D01*
X22792Y185714D02*
X22792Y190907D01*
X22792Y185714D02*
X11108Y185714D01*
X11108Y190907D01*
X16301Y189609D02*
X16301Y185714D01*
X11108Y195597D02*
X22792Y195597D01*
X11108Y195597D02*
X11108Y198843D01*
X11110Y198956D01*
X11116Y199069D01*
X11126Y199182D01*
X11140Y199295D01*
X11157Y199407D01*
X11179Y199518D01*
X11204Y199628D01*
X11234Y199738D01*
X11267Y199846D01*
X11304Y199953D01*
X11344Y200059D01*
X11389Y200163D01*
X11437Y200266D01*
X11488Y200367D01*
X11543Y200466D01*
X11601Y200563D01*
X11663Y200658D01*
X11728Y200751D01*
X11796Y200841D01*
X11867Y200929D01*
X11942Y201015D01*
X12019Y201098D01*
X12099Y201178D01*
X12182Y201255D01*
X12268Y201330D01*
X12356Y201401D01*
X12446Y201469D01*
X12539Y201534D01*
X12634Y201596D01*
X12731Y201654D01*
X12830Y201709D01*
X12931Y201760D01*
X13034Y201808D01*
X13138Y201853D01*
X13244Y201893D01*
X13351Y201930D01*
X13459Y201963D01*
X13569Y201993D01*
X13679Y202018D01*
X13790Y202040D01*
X13902Y202057D01*
X14015Y202071D01*
X14128Y202081D01*
X14241Y202087D01*
X14354Y202089D01*
X19546Y202089D01*
X19659Y202087D01*
X19772Y202081D01*
X19885Y202071D01*
X19998Y202057D01*
X20110Y202040D01*
X20221Y202018D01*
X20331Y201993D01*
X20441Y201963D01*
X20549Y201930D01*
X20656Y201893D01*
X20762Y201853D01*
X20866Y201808D01*
X20969Y201760D01*
X21070Y201709D01*
X21169Y201654D01*
X21266Y201596D01*
X21361Y201534D01*
X21454Y201469D01*
X21544Y201401D01*
X21632Y201330D01*
X21718Y201255D01*
X21801Y201178D01*
X21881Y201098D01*
X21958Y201015D01*
X22033Y200929D01*
X22104Y200841D01*
X22172Y200751D01*
X22237Y200658D01*
X22299Y200563D01*
X22357Y200466D01*
X22412Y200367D01*
X22463Y200266D01*
X22511Y200163D01*
X22556Y200059D01*
X22596Y199953D01*
X22633Y199846D01*
X22666Y199738D01*
X22696Y199628D01*
X22721Y199518D01*
X22743Y199407D01*
X22760Y199295D01*
X22774Y199182D01*
X22784Y199069D01*
X22790Y198956D01*
X22792Y198843D01*
X22792Y195597D01*
X13704Y207408D02*
X11108Y210654D01*
X22792Y210654D01*
X22792Y213899D02*
X22792Y207408D01*
X16950Y218838D02*
X16720Y218841D01*
X16490Y218849D01*
X16261Y218863D01*
X16032Y218882D01*
X15803Y218907D01*
X15575Y218937D01*
X15348Y218972D01*
X15122Y219013D01*
X14897Y219059D01*
X14673Y219111D01*
X14450Y219168D01*
X14229Y219230D01*
X14009Y219298D01*
X13791Y219371D01*
X13575Y219449D01*
X13361Y219532D01*
X13149Y219620D01*
X12938Y219713D01*
X12731Y219812D01*
X12641Y219845D01*
X12552Y219881D01*
X12464Y219921D01*
X12379Y219965D01*
X12295Y220012D01*
X12213Y220062D01*
X12133Y220116D01*
X12056Y220172D01*
X11980Y220232D01*
X11907Y220295D01*
X11837Y220360D01*
X11769Y220429D01*
X11705Y220500D01*
X11643Y220573D01*
X11584Y220649D01*
X11528Y220727D01*
X11475Y220808D01*
X11426Y220890D01*
X11380Y220974D01*
X11337Y221061D01*
X11298Y221148D01*
X11262Y221238D01*
X11230Y221328D01*
X11202Y221420D01*
X11177Y221513D01*
X11156Y221607D01*
X11139Y221701D01*
X11125Y221796D01*
X11116Y221892D01*
X11110Y221988D01*
X11108Y222084D01*
X11110Y222180D01*
X11116Y222276D01*
X11125Y222372D01*
X11139Y222467D01*
X11156Y222561D01*
X11177Y222655D01*
X11202Y222748D01*
X11230Y222840D01*
X11262Y222930D01*
X11298Y223020D01*
X11337Y223108D01*
X11380Y223194D01*
X11426Y223278D01*
X11475Y223360D01*
X11528Y223441D01*
X11584Y223519D01*
X11643Y223595D01*
X11705Y223668D01*
X11769Y223739D01*
X11837Y223808D01*
X11907Y223873D01*
X11980Y223936D01*
X12056Y223996D01*
X12133Y224052D01*
X12213Y224106D01*
X12295Y224156D01*
X12379Y224203D01*
X12464Y224247D01*
X12552Y224287D01*
X12641Y224323D01*
X12731Y224356D01*
X12938Y224455D01*
X13149Y224548D01*
X13361Y224636D01*
X13575Y224719D01*
X13791Y224797D01*
X14009Y224870D01*
X14229Y224938D01*
X14450Y225000D01*
X14673Y225057D01*
X14897Y225109D01*
X15122Y225155D01*
X15348Y225196D01*
X15575Y225231D01*
X15803Y225261D01*
X16032Y225286D01*
X16261Y225305D01*
X16490Y225319D01*
X16720Y225327D01*
X16950Y225330D01*
X16950Y218838D02*
X17180Y218841D01*
X17410Y218849D01*
X17639Y218863D01*
X17868Y218882D01*
X18097Y218907D01*
X18325Y218937D01*
X18552Y218972D01*
X18778Y219013D01*
X19003Y219059D01*
X19227Y219111D01*
X19450Y219168D01*
X19671Y219230D01*
X19891Y219298D01*
X20109Y219371D01*
X20325Y219449D01*
X20539Y219532D01*
X20751Y219620D01*
X20962Y219713D01*
X21169Y219812D01*
X21259Y219845D01*
X21348Y219881D01*
X21436Y219922D01*
X21521Y219965D01*
X21605Y220012D01*
X21687Y220062D01*
X21767Y220116D01*
X21844Y220172D01*
X21920Y220232D01*
X21993Y220295D01*
X22063Y220360D01*
X22131Y220429D01*
X22195Y220500D01*
X22257Y220573D01*
X22316Y220649D01*
X22372Y220727D01*
X22425Y220808D01*
X22474Y220890D01*
X22520Y220974D01*
X22563Y221061D01*
X22602Y221148D01*
X22638Y221238D01*
X22670Y221328D01*
X22698Y221420D01*
X22723Y221513D01*
X22744Y221607D01*
X22761Y221701D01*
X22775Y221796D01*
X22784Y221892D01*
X22790Y221988D01*
X22792Y222084D01*
X21169Y224356D02*
X20962Y224455D01*
X20751Y224548D01*
X20539Y224636D01*
X20325Y224719D01*
X20109Y224797D01*
X19891Y224870D01*
X19671Y224938D01*
X19450Y225000D01*
X19227Y225057D01*
X19003Y225109D01*
X18778Y225155D01*
X18552Y225196D01*
X18325Y225231D01*
X18097Y225261D01*
X17868Y225286D01*
X17639Y225305D01*
X17410Y225319D01*
X17180Y225327D01*
X16950Y225330D01*
X21169Y224356D02*
X21259Y224323D01*
X21348Y224287D01*
X21436Y224247D01*
X21521Y224203D01*
X21605Y224156D01*
X21687Y224106D01*
X21767Y224052D01*
X21844Y223996D01*
X21920Y223936D01*
X21993Y223873D01*
X22063Y223808D01*
X22131Y223739D01*
X22195Y223668D01*
X22257Y223595D01*
X22316Y223519D01*
X22372Y223441D01*
X22425Y223360D01*
X22474Y223278D01*
X22520Y223194D01*
X22563Y223107D01*
X22602Y223020D01*
X22638Y222930D01*
X22670Y222840D01*
X22698Y222748D01*
X22723Y222655D01*
X22744Y222561D01*
X22761Y222467D01*
X22775Y222372D01*
X22784Y222276D01*
X22790Y222180D01*
X22792Y222084D01*
X20196Y219487D02*
X13704Y224680D01*
D13*
X130000Y229500D03*
X142000Y229500D03*
D14*
X136000Y229500D03*
D10*
X122792Y215808D02*
X111108Y215808D01*
X122792Y215808D02*
X122792Y221001D01*
X122792Y225714D02*
X122792Y230907D01*
X122792Y225714D02*
X111108Y225714D01*
X111108Y230907D01*
X116301Y229609D02*
X116301Y225714D01*
X111108Y235597D02*
X122792Y235597D01*
X111108Y235597D02*
X111108Y238843D01*
X111110Y238956D01*
X111116Y239069D01*
X111126Y239182D01*
X111140Y239295D01*
X111157Y239407D01*
X111179Y239518D01*
X111204Y239628D01*
X111234Y239738D01*
X111267Y239846D01*
X111304Y239953D01*
X111344Y240059D01*
X111389Y240163D01*
X111437Y240266D01*
X111488Y240367D01*
X111543Y240466D01*
X111601Y240563D01*
X111663Y240658D01*
X111728Y240751D01*
X111796Y240841D01*
X111867Y240929D01*
X111942Y241015D01*
X112019Y241098D01*
X112099Y241178D01*
X112182Y241255D01*
X112268Y241330D01*
X112356Y241401D01*
X112446Y241469D01*
X112539Y241534D01*
X112634Y241596D01*
X112731Y241654D01*
X112830Y241709D01*
X112931Y241760D01*
X113034Y241808D01*
X113138Y241853D01*
X113244Y241893D01*
X113351Y241930D01*
X113459Y241963D01*
X113569Y241993D01*
X113679Y242018D01*
X113790Y242040D01*
X113902Y242057D01*
X114015Y242071D01*
X114128Y242081D01*
X114241Y242087D01*
X114354Y242089D01*
X119546Y242089D01*
X119659Y242087D01*
X119772Y242081D01*
X119885Y242071D01*
X119998Y242057D01*
X120110Y242040D01*
X120221Y242018D01*
X120331Y241993D01*
X120441Y241963D01*
X120549Y241930D01*
X120656Y241893D01*
X120762Y241853D01*
X120866Y241808D01*
X120969Y241760D01*
X121070Y241709D01*
X121169Y241654D01*
X121266Y241596D01*
X121361Y241534D01*
X121454Y241469D01*
X121544Y241401D01*
X121632Y241330D01*
X121718Y241255D01*
X121801Y241178D01*
X121881Y241098D01*
X121958Y241015D01*
X122033Y240929D01*
X122104Y240841D01*
X122172Y240751D01*
X122237Y240658D01*
X122299Y240563D01*
X122357Y240466D01*
X122412Y240367D01*
X122463Y240266D01*
X122511Y240163D01*
X122556Y240059D01*
X122596Y239953D01*
X122633Y239846D01*
X122666Y239738D01*
X122696Y239628D01*
X122721Y239518D01*
X122743Y239407D01*
X122760Y239295D01*
X122774Y239182D01*
X122784Y239069D01*
X122790Y238956D01*
X122792Y238843D01*
X122792Y235597D01*
X111108Y250978D02*
X111110Y251085D01*
X111116Y251191D01*
X111126Y251297D01*
X111139Y251403D01*
X111157Y251509D01*
X111178Y251613D01*
X111203Y251717D01*
X111232Y251820D01*
X111264Y251921D01*
X111301Y252021D01*
X111341Y252120D01*
X111384Y252218D01*
X111431Y252314D01*
X111482Y252408D01*
X111536Y252500D01*
X111593Y252590D01*
X111653Y252678D01*
X111717Y252763D01*
X111784Y252846D01*
X111854Y252927D01*
X111926Y253005D01*
X112002Y253081D01*
X112080Y253153D01*
X112161Y253223D01*
X112244Y253290D01*
X112329Y253354D01*
X112417Y253414D01*
X112507Y253471D01*
X112599Y253525D01*
X112693Y253576D01*
X112789Y253623D01*
X112887Y253666D01*
X112986Y253706D01*
X113086Y253743D01*
X113187Y253775D01*
X113290Y253804D01*
X113394Y253829D01*
X113498Y253850D01*
X113604Y253868D01*
X113710Y253881D01*
X113816Y253891D01*
X113922Y253897D01*
X114029Y253899D01*
X111108Y250978D02*
X111110Y250857D01*
X111116Y250736D01*
X111126Y250616D01*
X111139Y250495D01*
X111157Y250376D01*
X111178Y250256D01*
X111203Y250138D01*
X111232Y250021D01*
X111265Y249904D01*
X111301Y249789D01*
X111342Y249675D01*
X111385Y249562D01*
X111433Y249450D01*
X111484Y249341D01*
X111539Y249233D01*
X111597Y249126D01*
X111658Y249022D01*
X111723Y248920D01*
X111791Y248820D01*
X111862Y248722D01*
X111936Y248626D01*
X112013Y248533D01*
X112094Y248443D01*
X112177Y248355D01*
X112263Y248270D01*
X112352Y248187D01*
X112443Y248108D01*
X112537Y248031D01*
X112633Y247958D01*
X112731Y247888D01*
X112832Y247821D01*
X112935Y247757D01*
X113040Y247697D01*
X113147Y247639D01*
X113255Y247586D01*
X113365Y247536D01*
X113477Y247490D01*
X113590Y247447D01*
X113705Y247408D01*
X116301Y252925D02*
X116223Y253004D01*
X116143Y253080D01*
X116060Y253153D01*
X115974Y253223D01*
X115887Y253290D01*
X115796Y253354D01*
X115704Y253414D01*
X115610Y253472D01*
X115513Y253526D01*
X115415Y253576D01*
X115315Y253623D01*
X115214Y253667D01*
X115111Y253707D01*
X115006Y253743D01*
X114901Y253775D01*
X114794Y253804D01*
X114687Y253829D01*
X114578Y253851D01*
X114469Y253868D01*
X114360Y253882D01*
X114250Y253891D01*
X114139Y253897D01*
X114029Y253899D01*
X116301Y252926D02*
X122792Y247408D01*
X122792Y253899D01*
D13*
X105000Y229500D03*
X117000Y229500D03*
D14*
X111000Y229500D03*
D10*
X97792Y215808D02*
X86108Y215808D01*
X97792Y215808D02*
X97792Y221001D01*
X97792Y225714D02*
X97792Y230907D01*
X97792Y225714D02*
X86108Y225714D01*
X86108Y230907D01*
X91301Y229609D02*
X91301Y225714D01*
X86108Y235597D02*
X97792Y235597D01*
X86108Y235597D02*
X86108Y238843D01*
X86110Y238956D01*
X86116Y239069D01*
X86126Y239182D01*
X86140Y239295D01*
X86157Y239407D01*
X86179Y239518D01*
X86204Y239628D01*
X86234Y239738D01*
X86267Y239846D01*
X86304Y239953D01*
X86344Y240059D01*
X86389Y240163D01*
X86437Y240266D01*
X86488Y240367D01*
X86543Y240466D01*
X86601Y240563D01*
X86663Y240658D01*
X86728Y240751D01*
X86796Y240841D01*
X86867Y240929D01*
X86942Y241015D01*
X87019Y241098D01*
X87099Y241178D01*
X87182Y241255D01*
X87268Y241330D01*
X87356Y241401D01*
X87446Y241469D01*
X87539Y241534D01*
X87634Y241596D01*
X87731Y241654D01*
X87830Y241709D01*
X87931Y241760D01*
X88034Y241808D01*
X88138Y241853D01*
X88244Y241893D01*
X88351Y241930D01*
X88459Y241963D01*
X88569Y241993D01*
X88679Y242018D01*
X88790Y242040D01*
X88902Y242057D01*
X89015Y242071D01*
X89128Y242081D01*
X89241Y242087D01*
X89354Y242089D01*
X94546Y242089D01*
X94659Y242087D01*
X94772Y242081D01*
X94885Y242071D01*
X94998Y242057D01*
X95110Y242040D01*
X95221Y242018D01*
X95331Y241993D01*
X95441Y241963D01*
X95549Y241930D01*
X95656Y241893D01*
X95762Y241853D01*
X95866Y241808D01*
X95969Y241760D01*
X96070Y241709D01*
X96169Y241654D01*
X96266Y241596D01*
X96361Y241534D01*
X96454Y241469D01*
X96544Y241401D01*
X96632Y241330D01*
X96718Y241255D01*
X96801Y241178D01*
X96881Y241098D01*
X96958Y241015D01*
X97033Y240929D01*
X97104Y240841D01*
X97172Y240751D01*
X97237Y240658D01*
X97299Y240563D01*
X97357Y240466D01*
X97412Y240367D01*
X97463Y240266D01*
X97511Y240163D01*
X97556Y240059D01*
X97596Y239953D01*
X97633Y239846D01*
X97666Y239738D01*
X97696Y239628D01*
X97721Y239518D01*
X97743Y239407D01*
X97760Y239295D01*
X97774Y239182D01*
X97784Y239069D01*
X97790Y238956D01*
X97792Y238843D01*
X97792Y235597D01*
X97792Y247408D02*
X97792Y250654D01*
X97790Y250767D01*
X97784Y250880D01*
X97774Y250993D01*
X97760Y251106D01*
X97743Y251218D01*
X97721Y251329D01*
X97696Y251439D01*
X97666Y251549D01*
X97633Y251657D01*
X97596Y251764D01*
X97556Y251870D01*
X97511Y251974D01*
X97463Y252077D01*
X97412Y252178D01*
X97357Y252277D01*
X97299Y252374D01*
X97237Y252469D01*
X97172Y252562D01*
X97104Y252652D01*
X97033Y252740D01*
X96958Y252826D01*
X96881Y252909D01*
X96801Y252989D01*
X96718Y253066D01*
X96632Y253141D01*
X96544Y253212D01*
X96454Y253280D01*
X96361Y253345D01*
X96266Y253407D01*
X96169Y253465D01*
X96070Y253520D01*
X95969Y253571D01*
X95866Y253619D01*
X95762Y253664D01*
X95656Y253704D01*
X95549Y253741D01*
X95441Y253774D01*
X95331Y253804D01*
X95221Y253829D01*
X95110Y253851D01*
X94998Y253868D01*
X94885Y253882D01*
X94772Y253892D01*
X94659Y253898D01*
X94546Y253900D01*
X94433Y253898D01*
X94320Y253892D01*
X94207Y253882D01*
X94094Y253868D01*
X93982Y253851D01*
X93871Y253829D01*
X93761Y253804D01*
X93651Y253774D01*
X93543Y253741D01*
X93436Y253704D01*
X93330Y253664D01*
X93226Y253619D01*
X93123Y253571D01*
X93022Y253520D01*
X92923Y253465D01*
X92826Y253407D01*
X92731Y253345D01*
X92638Y253280D01*
X92548Y253212D01*
X92460Y253141D01*
X92374Y253066D01*
X92291Y252989D01*
X92211Y252909D01*
X92134Y252826D01*
X92059Y252740D01*
X91988Y252652D01*
X91920Y252562D01*
X91855Y252469D01*
X91793Y252374D01*
X91735Y252277D01*
X91680Y252178D01*
X91629Y252077D01*
X91581Y251974D01*
X91536Y251870D01*
X91496Y251764D01*
X91459Y251657D01*
X91426Y251549D01*
X91396Y251439D01*
X91371Y251329D01*
X91349Y251218D01*
X91332Y251106D01*
X91318Y250993D01*
X91308Y250880D01*
X91302Y250767D01*
X91300Y250654D01*
X86108Y251303D02*
X86108Y247408D01*
X86108Y251303D02*
X86110Y251404D01*
X86116Y251504D01*
X86126Y251604D01*
X86139Y251704D01*
X86157Y251803D01*
X86178Y251902D01*
X86203Y251999D01*
X86232Y252096D01*
X86265Y252191D01*
X86301Y252285D01*
X86341Y252377D01*
X86384Y252468D01*
X86431Y252557D01*
X86481Y252644D01*
X86535Y252730D01*
X86592Y252813D01*
X86652Y252893D01*
X86715Y252972D01*
X86782Y253048D01*
X86851Y253121D01*
X86923Y253191D01*
X86997Y253259D01*
X87074Y253324D01*
X87154Y253385D01*
X87236Y253444D01*
X87320Y253499D01*
X87406Y253551D01*
X87494Y253600D01*
X87584Y253645D01*
X87676Y253687D01*
X87769Y253725D01*
X87864Y253759D01*
X87959Y253790D01*
X88056Y253817D01*
X88154Y253840D01*
X88253Y253860D01*
X88353Y253875D01*
X88453Y253887D01*
X88553Y253895D01*
X88654Y253899D01*
X88754Y253899D01*
X88855Y253895D01*
X88955Y253887D01*
X89055Y253875D01*
X89155Y253860D01*
X89254Y253840D01*
X89352Y253817D01*
X89449Y253790D01*
X89544Y253759D01*
X89639Y253725D01*
X89732Y253687D01*
X89824Y253645D01*
X89914Y253600D01*
X90002Y253551D01*
X90088Y253499D01*
X90172Y253444D01*
X90254Y253385D01*
X90334Y253324D01*
X90411Y253259D01*
X90485Y253191D01*
X90557Y253121D01*
X90626Y253048D01*
X90693Y252972D01*
X90756Y252893D01*
X90816Y252813D01*
X90873Y252730D01*
X90927Y252644D01*
X90977Y252557D01*
X91024Y252468D01*
X91067Y252377D01*
X91107Y252285D01*
X91143Y252191D01*
X91176Y252096D01*
X91205Y251999D01*
X91230Y251902D01*
X91251Y251803D01*
X91269Y251704D01*
X91282Y251604D01*
X91292Y251504D01*
X91298Y251404D01*
X91300Y251303D01*
X91301Y251303D02*
X91301Y248707D01*
D13*
X80000Y229500D03*
X92000Y229500D03*
D14*
X86000Y229500D03*
D10*
X72792Y215808D02*
X61108Y215808D01*
X72792Y215808D02*
X72792Y221001D01*
X72792Y225714D02*
X72792Y230907D01*
X72792Y225714D02*
X61108Y225714D01*
X61108Y230907D01*
X66301Y229609D02*
X66301Y225714D01*
X61108Y235597D02*
X72792Y235597D01*
X61108Y235597D02*
X61108Y238843D01*
X61110Y238956D01*
X61116Y239069D01*
X61126Y239182D01*
X61140Y239295D01*
X61157Y239407D01*
X61179Y239518D01*
X61204Y239628D01*
X61234Y239738D01*
X61267Y239846D01*
X61304Y239953D01*
X61344Y240059D01*
X61389Y240163D01*
X61437Y240266D01*
X61488Y240367D01*
X61543Y240466D01*
X61601Y240563D01*
X61663Y240658D01*
X61728Y240751D01*
X61796Y240841D01*
X61867Y240929D01*
X61942Y241015D01*
X62019Y241098D01*
X62099Y241178D01*
X62182Y241255D01*
X62268Y241330D01*
X62356Y241401D01*
X62446Y241469D01*
X62539Y241534D01*
X62634Y241596D01*
X62731Y241654D01*
X62830Y241709D01*
X62931Y241760D01*
X63034Y241808D01*
X63138Y241853D01*
X63244Y241893D01*
X63351Y241930D01*
X63459Y241963D01*
X63569Y241993D01*
X63679Y242018D01*
X63790Y242040D01*
X63902Y242057D01*
X64015Y242071D01*
X64128Y242081D01*
X64241Y242087D01*
X64354Y242089D01*
X69546Y242089D01*
X69659Y242087D01*
X69772Y242081D01*
X69885Y242071D01*
X69998Y242057D01*
X70110Y242040D01*
X70221Y242018D01*
X70331Y241993D01*
X70441Y241963D01*
X70549Y241930D01*
X70656Y241893D01*
X70762Y241853D01*
X70866Y241808D01*
X70969Y241760D01*
X71070Y241709D01*
X71169Y241654D01*
X71266Y241596D01*
X71361Y241534D01*
X71454Y241469D01*
X71544Y241401D01*
X71632Y241330D01*
X71718Y241255D01*
X71801Y241178D01*
X71881Y241098D01*
X71958Y241015D01*
X72033Y240929D01*
X72104Y240841D01*
X72172Y240751D01*
X72237Y240658D01*
X72299Y240563D01*
X72357Y240466D01*
X72412Y240367D01*
X72463Y240266D01*
X72511Y240163D01*
X72556Y240059D01*
X72596Y239953D01*
X72633Y239846D01*
X72666Y239738D01*
X72696Y239628D01*
X72721Y239518D01*
X72743Y239407D01*
X72760Y239295D01*
X72774Y239182D01*
X72784Y239069D01*
X72790Y238956D01*
X72792Y238843D01*
X72792Y235597D01*
X70196Y247408D02*
X61108Y250005D01*
X70196Y247408D02*
X70196Y253899D01*
X67599Y251952D02*
X72792Y251952D01*
D13*
X155000Y189500D03*
X167000Y189500D03*
D14*
X161000Y189500D03*
D10*
X147792Y175808D02*
X136108Y175808D01*
X147792Y175808D02*
X147792Y181001D01*
X147792Y185714D02*
X147792Y190907D01*
X147792Y185714D02*
X136108Y185714D01*
X136108Y190907D01*
X141301Y189609D02*
X141301Y185714D01*
X136108Y195597D02*
X147792Y195597D01*
X136108Y195597D02*
X136108Y198843D01*
X136110Y198956D01*
X136116Y199069D01*
X136126Y199182D01*
X136140Y199295D01*
X136157Y199407D01*
X136179Y199518D01*
X136204Y199628D01*
X136234Y199738D01*
X136267Y199846D01*
X136304Y199953D01*
X136344Y200059D01*
X136389Y200163D01*
X136437Y200266D01*
X136488Y200367D01*
X136543Y200466D01*
X136601Y200563D01*
X136663Y200658D01*
X136728Y200751D01*
X136796Y200841D01*
X136867Y200929D01*
X136942Y201015D01*
X137019Y201098D01*
X137099Y201178D01*
X137182Y201255D01*
X137268Y201330D01*
X137356Y201401D01*
X137446Y201469D01*
X137539Y201534D01*
X137634Y201596D01*
X137731Y201654D01*
X137830Y201709D01*
X137931Y201760D01*
X138034Y201808D01*
X138138Y201853D01*
X138244Y201893D01*
X138351Y201930D01*
X138459Y201963D01*
X138569Y201993D01*
X138679Y202018D01*
X138790Y202040D01*
X138902Y202057D01*
X139015Y202071D01*
X139128Y202081D01*
X139241Y202087D01*
X139354Y202089D01*
X144546Y202089D01*
X144659Y202087D01*
X144772Y202081D01*
X144885Y202071D01*
X144998Y202057D01*
X145110Y202040D01*
X145221Y202018D01*
X145331Y201993D01*
X145441Y201963D01*
X145549Y201930D01*
X145656Y201893D01*
X145762Y201853D01*
X145866Y201808D01*
X145969Y201760D01*
X146070Y201709D01*
X146169Y201654D01*
X146266Y201596D01*
X146361Y201534D01*
X146454Y201469D01*
X146544Y201401D01*
X146632Y201330D01*
X146718Y201255D01*
X146801Y201178D01*
X146881Y201098D01*
X146958Y201015D01*
X147033Y200929D01*
X147104Y200841D01*
X147172Y200751D01*
X147237Y200658D01*
X147299Y200563D01*
X147357Y200466D01*
X147412Y200367D01*
X147463Y200266D01*
X147511Y200163D01*
X147556Y200059D01*
X147596Y199953D01*
X147633Y199846D01*
X147666Y199738D01*
X147696Y199628D01*
X147721Y199518D01*
X147743Y199407D01*
X147760Y199295D01*
X147774Y199182D01*
X147784Y199069D01*
X147790Y198956D01*
X147792Y198843D01*
X147792Y195597D01*
X147792Y207408D02*
X147792Y211303D01*
X147790Y211402D01*
X147784Y211502D01*
X147775Y211601D01*
X147762Y211699D01*
X147745Y211797D01*
X147724Y211895D01*
X147699Y211991D01*
X147671Y212086D01*
X147639Y212180D01*
X147604Y212273D01*
X147565Y212365D01*
X147522Y212455D01*
X147477Y212543D01*
X147427Y212630D01*
X147375Y212714D01*
X147319Y212797D01*
X147261Y212877D01*
X147199Y212955D01*
X147134Y213030D01*
X147066Y213103D01*
X146996Y213173D01*
X146923Y213241D01*
X146848Y213306D01*
X146770Y213368D01*
X146690Y213426D01*
X146607Y213482D01*
X146523Y213534D01*
X146436Y213584D01*
X146348Y213629D01*
X146258Y213672D01*
X146166Y213711D01*
X146073Y213746D01*
X145979Y213778D01*
X145884Y213806D01*
X145788Y213831D01*
X145690Y213852D01*
X145592Y213869D01*
X145494Y213882D01*
X145395Y213891D01*
X145295Y213897D01*
X145196Y213899D01*
X143897Y213899D01*
X143798Y213897D01*
X143698Y213891D01*
X143599Y213882D01*
X143501Y213869D01*
X143403Y213852D01*
X143305Y213831D01*
X143209Y213806D01*
X143114Y213778D01*
X143020Y213746D01*
X142927Y213711D01*
X142835Y213672D01*
X142745Y213629D01*
X142657Y213584D01*
X142570Y213534D01*
X142486Y213482D01*
X142403Y213426D01*
X142323Y213368D01*
X142245Y213306D01*
X142170Y213241D01*
X142097Y213173D01*
X142027Y213103D01*
X141959Y213030D01*
X141894Y212955D01*
X141832Y212877D01*
X141774Y212797D01*
X141718Y212714D01*
X141666Y212630D01*
X141616Y212543D01*
X141571Y212455D01*
X141528Y212365D01*
X141489Y212273D01*
X141454Y212180D01*
X141422Y212086D01*
X141394Y211991D01*
X141369Y211895D01*
X141348Y211797D01*
X141331Y211699D01*
X141318Y211601D01*
X141309Y211502D01*
X141303Y211402D01*
X141301Y211303D01*
X141301Y207408D01*
X136108Y207408D01*
X136108Y213899D01*
D13*
X130000Y189500D03*
X142000Y189500D03*
D14*
X136000Y189500D03*
D10*
X122792Y175808D02*
X111108Y175808D01*
X122792Y175808D02*
X122792Y181001D01*
X122792Y185714D02*
X122792Y190907D01*
X122792Y185714D02*
X111108Y185714D01*
X111108Y190907D01*
X116301Y189609D02*
X116301Y185714D01*
X111108Y195597D02*
X122792Y195597D01*
X111108Y195597D02*
X111108Y198843D01*
X111110Y198956D01*
X111116Y199069D01*
X111126Y199182D01*
X111140Y199295D01*
X111157Y199407D01*
X111179Y199518D01*
X111204Y199628D01*
X111234Y199738D01*
X111267Y199846D01*
X111304Y199953D01*
X111344Y200059D01*
X111389Y200163D01*
X111437Y200266D01*
X111488Y200367D01*
X111543Y200466D01*
X111601Y200563D01*
X111663Y200658D01*
X111728Y200751D01*
X111796Y200841D01*
X111867Y200929D01*
X111942Y201015D01*
X112019Y201098D01*
X112099Y201178D01*
X112182Y201255D01*
X112268Y201330D01*
X112356Y201401D01*
X112446Y201469D01*
X112539Y201534D01*
X112634Y201596D01*
X112731Y201654D01*
X112830Y201709D01*
X112931Y201760D01*
X113034Y201808D01*
X113138Y201853D01*
X113244Y201893D01*
X113351Y201930D01*
X113459Y201963D01*
X113569Y201993D01*
X113679Y202018D01*
X113790Y202040D01*
X113902Y202057D01*
X114015Y202071D01*
X114128Y202081D01*
X114241Y202087D01*
X114354Y202089D01*
X119546Y202089D01*
X119659Y202087D01*
X119772Y202081D01*
X119885Y202071D01*
X119998Y202057D01*
X120110Y202040D01*
X120221Y202018D01*
X120331Y201993D01*
X120441Y201963D01*
X120549Y201930D01*
X120656Y201893D01*
X120762Y201853D01*
X120866Y201808D01*
X120969Y201760D01*
X121070Y201709D01*
X121169Y201654D01*
X121266Y201596D01*
X121361Y201534D01*
X121454Y201469D01*
X121544Y201401D01*
X121632Y201330D01*
X121718Y201255D01*
X121801Y201178D01*
X121881Y201098D01*
X121958Y201015D01*
X122033Y200929D01*
X122104Y200841D01*
X122172Y200751D01*
X122237Y200658D01*
X122299Y200563D01*
X122357Y200466D01*
X122412Y200367D01*
X122463Y200266D01*
X122511Y200163D01*
X122556Y200059D01*
X122596Y199953D01*
X122633Y199846D01*
X122666Y199738D01*
X122696Y199628D01*
X122721Y199518D01*
X122743Y199407D01*
X122760Y199295D01*
X122774Y199182D01*
X122784Y199069D01*
X122790Y198956D01*
X122792Y198843D01*
X122792Y195597D01*
X116301Y207408D02*
X116301Y211303D01*
X116303Y211402D01*
X116309Y211502D01*
X116318Y211601D01*
X116331Y211699D01*
X116348Y211797D01*
X116369Y211895D01*
X116394Y211991D01*
X116422Y212086D01*
X116454Y212180D01*
X116489Y212273D01*
X116528Y212365D01*
X116571Y212455D01*
X116616Y212543D01*
X116666Y212630D01*
X116718Y212714D01*
X116774Y212797D01*
X116832Y212877D01*
X116894Y212955D01*
X116959Y213030D01*
X117027Y213103D01*
X117097Y213173D01*
X117170Y213241D01*
X117245Y213306D01*
X117323Y213368D01*
X117403Y213426D01*
X117486Y213482D01*
X117570Y213534D01*
X117657Y213584D01*
X117745Y213629D01*
X117835Y213672D01*
X117927Y213711D01*
X118020Y213746D01*
X118114Y213778D01*
X118209Y213806D01*
X118305Y213831D01*
X118403Y213852D01*
X118501Y213869D01*
X118599Y213882D01*
X118698Y213891D01*
X118798Y213897D01*
X118897Y213899D01*
X119546Y213899D01*
X119546Y213900D02*
X119659Y213898D01*
X119772Y213892D01*
X119885Y213882D01*
X119998Y213868D01*
X120110Y213851D01*
X120221Y213829D01*
X120331Y213804D01*
X120441Y213774D01*
X120549Y213741D01*
X120656Y213704D01*
X120762Y213664D01*
X120866Y213619D01*
X120969Y213571D01*
X121070Y213520D01*
X121169Y213465D01*
X121266Y213407D01*
X121361Y213345D01*
X121454Y213280D01*
X121544Y213212D01*
X121632Y213141D01*
X121718Y213066D01*
X121801Y212989D01*
X121881Y212909D01*
X121958Y212826D01*
X122033Y212740D01*
X122104Y212652D01*
X122172Y212562D01*
X122237Y212469D01*
X122299Y212374D01*
X122357Y212277D01*
X122412Y212178D01*
X122463Y212077D01*
X122511Y211974D01*
X122556Y211870D01*
X122596Y211764D01*
X122633Y211657D01*
X122666Y211549D01*
X122696Y211439D01*
X122721Y211329D01*
X122743Y211218D01*
X122760Y211106D01*
X122774Y210993D01*
X122784Y210880D01*
X122790Y210767D01*
X122792Y210654D01*
X122790Y210541D01*
X122784Y210428D01*
X122774Y210315D01*
X122760Y210202D01*
X122743Y210090D01*
X122721Y209979D01*
X122696Y209869D01*
X122666Y209759D01*
X122633Y209651D01*
X122596Y209544D01*
X122556Y209438D01*
X122511Y209334D01*
X122463Y209231D01*
X122412Y209130D01*
X122357Y209031D01*
X122299Y208934D01*
X122237Y208839D01*
X122172Y208746D01*
X122104Y208656D01*
X122033Y208568D01*
X121958Y208482D01*
X121881Y208399D01*
X121801Y208319D01*
X121718Y208242D01*
X121632Y208167D01*
X121544Y208096D01*
X121454Y208028D01*
X121361Y207963D01*
X121266Y207901D01*
X121169Y207843D01*
X121070Y207788D01*
X120969Y207737D01*
X120866Y207689D01*
X120762Y207644D01*
X120656Y207604D01*
X120549Y207567D01*
X120441Y207534D01*
X120331Y207504D01*
X120221Y207479D01*
X120110Y207457D01*
X119998Y207440D01*
X119885Y207426D01*
X119772Y207416D01*
X119659Y207410D01*
X119546Y207408D01*
X116301Y207408D01*
X116158Y207410D01*
X116015Y207416D01*
X115872Y207426D01*
X115730Y207440D01*
X115588Y207457D01*
X115446Y207479D01*
X115305Y207504D01*
X115165Y207534D01*
X115026Y207567D01*
X114888Y207604D01*
X114751Y207645D01*
X114615Y207689D01*
X114480Y207738D01*
X114347Y207790D01*
X114215Y207845D01*
X114085Y207905D01*
X113956Y207968D01*
X113829Y208034D01*
X113705Y208104D01*
X113582Y208177D01*
X113461Y208254D01*
X113342Y208333D01*
X113226Y208417D01*
X113111Y208503D01*
X113000Y208592D01*
X112891Y208685D01*
X112784Y208780D01*
X112680Y208879D01*
X112579Y208980D01*
X112480Y209084D01*
X112385Y209190D01*
X112292Y209300D01*
X112203Y209411D01*
X112117Y209525D01*
X112034Y209642D01*
X111954Y209761D01*
X111877Y209882D01*
X111804Y210004D01*
X111734Y210129D01*
X111668Y210256D01*
X111605Y210385D01*
X111545Y210515D01*
X111490Y210647D01*
X111438Y210780D01*
X111389Y210915D01*
X111345Y211051D01*
X111304Y211188D01*
X111267Y211326D01*
X111234Y211465D01*
X111204Y211605D01*
X111179Y211746D01*
X111157Y211888D01*
X111140Y212030D01*
X111126Y212172D01*
X111116Y212315D01*
X111110Y212458D01*
X111108Y212601D01*
D13*
X105000Y189500D03*
X117000Y189500D03*
D14*
X111000Y189500D03*
D10*
X97792Y175808D02*
X86108Y175808D01*
X97792Y175808D02*
X97792Y181001D01*
X97792Y185714D02*
X97792Y190907D01*
X97792Y185714D02*
X86108Y185714D01*
X86108Y190907D01*
X91301Y189609D02*
X91301Y185714D01*
X86108Y195597D02*
X97792Y195597D01*
X86108Y195597D02*
X86108Y198843D01*
X86110Y198956D01*
X86116Y199069D01*
X86126Y199182D01*
X86140Y199295D01*
X86157Y199407D01*
X86179Y199518D01*
X86204Y199628D01*
X86234Y199738D01*
X86267Y199846D01*
X86304Y199953D01*
X86344Y200059D01*
X86389Y200163D01*
X86437Y200266D01*
X86488Y200367D01*
X86543Y200466D01*
X86601Y200563D01*
X86663Y200658D01*
X86728Y200751D01*
X86796Y200841D01*
X86867Y200929D01*
X86942Y201015D01*
X87019Y201098D01*
X87099Y201178D01*
X87182Y201255D01*
X87268Y201330D01*
X87356Y201401D01*
X87446Y201469D01*
X87539Y201534D01*
X87634Y201596D01*
X87731Y201654D01*
X87830Y201709D01*
X87931Y201760D01*
X88034Y201808D01*
X88138Y201853D01*
X88244Y201893D01*
X88351Y201930D01*
X88459Y201963D01*
X88569Y201993D01*
X88679Y202018D01*
X88790Y202040D01*
X88902Y202057D01*
X89015Y202071D01*
X89128Y202081D01*
X89241Y202087D01*
X89354Y202089D01*
X94546Y202089D01*
X94659Y202087D01*
X94772Y202081D01*
X94885Y202071D01*
X94998Y202057D01*
X95110Y202040D01*
X95221Y202018D01*
X95331Y201993D01*
X95441Y201963D01*
X95549Y201930D01*
X95656Y201893D01*
X95762Y201853D01*
X95866Y201808D01*
X95969Y201760D01*
X96070Y201709D01*
X96169Y201654D01*
X96266Y201596D01*
X96361Y201534D01*
X96454Y201469D01*
X96544Y201401D01*
X96632Y201330D01*
X96718Y201255D01*
X96801Y201178D01*
X96881Y201098D01*
X96958Y201015D01*
X97033Y200929D01*
X97104Y200841D01*
X97172Y200751D01*
X97237Y200658D01*
X97299Y200563D01*
X97357Y200466D01*
X97412Y200367D01*
X97463Y200266D01*
X97511Y200163D01*
X97556Y200059D01*
X97596Y199953D01*
X97633Y199846D01*
X97666Y199738D01*
X97696Y199628D01*
X97721Y199518D01*
X97743Y199407D01*
X97760Y199295D01*
X97774Y199182D01*
X97784Y199069D01*
X97790Y198956D01*
X97792Y198843D01*
X97792Y195597D01*
X87406Y207408D02*
X86108Y207408D01*
X86108Y213899D01*
X97792Y210654D01*
D13*
X80000Y189500D03*
X92000Y189500D03*
D14*
X86000Y189500D03*
D10*
X72792Y175808D02*
X61108Y175808D01*
X72792Y175808D02*
X72792Y181001D01*
X72792Y185714D02*
X72792Y190907D01*
X72792Y185714D02*
X61108Y185714D01*
X61108Y190907D01*
X66301Y189609D02*
X66301Y185714D01*
X61108Y195597D02*
X72792Y195597D01*
X61108Y195597D02*
X61108Y198843D01*
X61110Y198956D01*
X61116Y199069D01*
X61126Y199182D01*
X61140Y199295D01*
X61157Y199407D01*
X61179Y199518D01*
X61204Y199628D01*
X61234Y199738D01*
X61267Y199846D01*
X61304Y199953D01*
X61344Y200059D01*
X61389Y200163D01*
X61437Y200266D01*
X61488Y200367D01*
X61543Y200466D01*
X61601Y200563D01*
X61663Y200658D01*
X61728Y200751D01*
X61796Y200841D01*
X61867Y200929D01*
X61942Y201015D01*
X62019Y201098D01*
X62099Y201178D01*
X62182Y201255D01*
X62268Y201330D01*
X62356Y201401D01*
X62446Y201469D01*
X62539Y201534D01*
X62634Y201596D01*
X62731Y201654D01*
X62830Y201709D01*
X62931Y201760D01*
X63034Y201808D01*
X63138Y201853D01*
X63244Y201893D01*
X63351Y201930D01*
X63459Y201963D01*
X63569Y201993D01*
X63679Y202018D01*
X63790Y202040D01*
X63902Y202057D01*
X64015Y202071D01*
X64128Y202081D01*
X64241Y202087D01*
X64354Y202089D01*
X69546Y202089D01*
X69659Y202087D01*
X69772Y202081D01*
X69885Y202071D01*
X69998Y202057D01*
X70110Y202040D01*
X70221Y202018D01*
X70331Y201993D01*
X70441Y201963D01*
X70549Y201930D01*
X70656Y201893D01*
X70762Y201853D01*
X70866Y201808D01*
X70969Y201760D01*
X71070Y201709D01*
X71169Y201654D01*
X71266Y201596D01*
X71361Y201534D01*
X71454Y201469D01*
X71544Y201401D01*
X71632Y201330D01*
X71718Y201255D01*
X71801Y201178D01*
X71881Y201098D01*
X71958Y201015D01*
X72033Y200929D01*
X72104Y200841D01*
X72172Y200751D01*
X72237Y200658D01*
X72299Y200563D01*
X72357Y200466D01*
X72412Y200367D01*
X72463Y200266D01*
X72511Y200163D01*
X72556Y200059D01*
X72596Y199953D01*
X72633Y199846D01*
X72666Y199738D01*
X72696Y199628D01*
X72721Y199518D01*
X72743Y199407D01*
X72760Y199295D01*
X72774Y199182D01*
X72784Y199069D01*
X72790Y198956D01*
X72792Y198843D01*
X72792Y195597D01*
X69546Y207408D02*
X69433Y207410D01*
X69320Y207416D01*
X69207Y207426D01*
X69094Y207440D01*
X68982Y207457D01*
X68871Y207479D01*
X68761Y207504D01*
X68651Y207534D01*
X68543Y207567D01*
X68436Y207604D01*
X68330Y207644D01*
X68226Y207689D01*
X68123Y207737D01*
X68022Y207788D01*
X67923Y207843D01*
X67826Y207901D01*
X67731Y207963D01*
X67638Y208028D01*
X67548Y208096D01*
X67460Y208167D01*
X67374Y208242D01*
X67291Y208319D01*
X67211Y208399D01*
X67134Y208482D01*
X67059Y208568D01*
X66988Y208656D01*
X66920Y208746D01*
X66855Y208839D01*
X66793Y208934D01*
X66735Y209031D01*
X66680Y209130D01*
X66629Y209231D01*
X66581Y209334D01*
X66536Y209438D01*
X66496Y209544D01*
X66459Y209651D01*
X66426Y209759D01*
X66396Y209869D01*
X66371Y209979D01*
X66349Y210090D01*
X66332Y210202D01*
X66318Y210315D01*
X66308Y210428D01*
X66302Y210541D01*
X66300Y210654D01*
X66302Y210767D01*
X66308Y210880D01*
X66318Y210993D01*
X66332Y211106D01*
X66349Y211218D01*
X66371Y211329D01*
X66396Y211439D01*
X66426Y211549D01*
X66459Y211657D01*
X66496Y211764D01*
X66536Y211870D01*
X66581Y211974D01*
X66629Y212077D01*
X66680Y212178D01*
X66735Y212277D01*
X66793Y212374D01*
X66855Y212469D01*
X66920Y212562D01*
X66988Y212652D01*
X67059Y212740D01*
X67134Y212826D01*
X67211Y212909D01*
X67291Y212989D01*
X67374Y213066D01*
X67460Y213141D01*
X67548Y213212D01*
X67638Y213280D01*
X67731Y213345D01*
X67826Y213407D01*
X67923Y213465D01*
X68022Y213520D01*
X68123Y213571D01*
X68226Y213619D01*
X68330Y213664D01*
X68436Y213704D01*
X68543Y213741D01*
X68651Y213774D01*
X68761Y213804D01*
X68871Y213829D01*
X68982Y213851D01*
X69094Y213868D01*
X69207Y213882D01*
X69320Y213892D01*
X69433Y213898D01*
X69546Y213900D01*
X69659Y213898D01*
X69772Y213892D01*
X69885Y213882D01*
X69998Y213868D01*
X70110Y213851D01*
X70221Y213829D01*
X70331Y213804D01*
X70441Y213774D01*
X70549Y213741D01*
X70656Y213704D01*
X70762Y213664D01*
X70866Y213619D01*
X70969Y213571D01*
X71070Y213520D01*
X71169Y213465D01*
X71266Y213407D01*
X71361Y213345D01*
X71454Y213280D01*
X71544Y213212D01*
X71632Y213141D01*
X71718Y213066D01*
X71801Y212989D01*
X71881Y212909D01*
X71958Y212826D01*
X72033Y212740D01*
X72104Y212652D01*
X72172Y212562D01*
X72237Y212469D01*
X72299Y212374D01*
X72357Y212277D01*
X72412Y212178D01*
X72463Y212077D01*
X72511Y211974D01*
X72556Y211870D01*
X72596Y211764D01*
X72633Y211657D01*
X72666Y211549D01*
X72696Y211439D01*
X72721Y211329D01*
X72743Y211218D01*
X72760Y211106D01*
X72774Y210993D01*
X72784Y210880D01*
X72790Y210767D01*
X72792Y210654D01*
X72790Y210541D01*
X72784Y210428D01*
X72774Y210315D01*
X72760Y210202D01*
X72743Y210090D01*
X72721Y209979D01*
X72696Y209869D01*
X72666Y209759D01*
X72633Y209651D01*
X72596Y209544D01*
X72556Y209438D01*
X72511Y209334D01*
X72463Y209231D01*
X72412Y209130D01*
X72357Y209031D01*
X72299Y208934D01*
X72237Y208839D01*
X72172Y208746D01*
X72104Y208656D01*
X72033Y208568D01*
X71958Y208482D01*
X71881Y208399D01*
X71801Y208319D01*
X71718Y208242D01*
X71632Y208167D01*
X71544Y208096D01*
X71454Y208028D01*
X71361Y207963D01*
X71266Y207901D01*
X71169Y207843D01*
X71070Y207788D01*
X70969Y207737D01*
X70866Y207689D01*
X70762Y207644D01*
X70656Y207604D01*
X70549Y207567D01*
X70441Y207534D01*
X70331Y207504D01*
X70221Y207479D01*
X70110Y207457D01*
X69998Y207440D01*
X69885Y207426D01*
X69772Y207416D01*
X69659Y207410D01*
X69546Y207408D01*
X63704Y208058D02*
X63603Y208060D01*
X63503Y208066D01*
X63403Y208076D01*
X63303Y208089D01*
X63204Y208107D01*
X63105Y208128D01*
X63008Y208153D01*
X62911Y208182D01*
X62816Y208215D01*
X62722Y208251D01*
X62630Y208291D01*
X62539Y208334D01*
X62450Y208381D01*
X62363Y208431D01*
X62277Y208485D01*
X62194Y208542D01*
X62114Y208602D01*
X62035Y208665D01*
X61959Y208732D01*
X61886Y208801D01*
X61816Y208873D01*
X61748Y208947D01*
X61683Y209024D01*
X61622Y209104D01*
X61563Y209186D01*
X61508Y209270D01*
X61456Y209356D01*
X61407Y209444D01*
X61362Y209534D01*
X61320Y209626D01*
X61282Y209719D01*
X61248Y209814D01*
X61217Y209909D01*
X61190Y210006D01*
X61167Y210104D01*
X61147Y210203D01*
X61132Y210303D01*
X61120Y210403D01*
X61112Y210503D01*
X61108Y210604D01*
X61108Y210704D01*
X61112Y210805D01*
X61120Y210905D01*
X61132Y211005D01*
X61147Y211105D01*
X61167Y211204D01*
X61190Y211302D01*
X61217Y211399D01*
X61248Y211494D01*
X61282Y211589D01*
X61320Y211682D01*
X61362Y211774D01*
X61407Y211864D01*
X61456Y211952D01*
X61508Y212038D01*
X61563Y212122D01*
X61622Y212204D01*
X61683Y212284D01*
X61748Y212361D01*
X61816Y212435D01*
X61886Y212507D01*
X61959Y212576D01*
X62035Y212643D01*
X62114Y212706D01*
X62194Y212766D01*
X62277Y212823D01*
X62363Y212877D01*
X62450Y212927D01*
X62539Y212974D01*
X62630Y213017D01*
X62722Y213057D01*
X62816Y213093D01*
X62911Y213126D01*
X63008Y213155D01*
X63105Y213180D01*
X63204Y213201D01*
X63303Y213219D01*
X63403Y213232D01*
X63503Y213242D01*
X63603Y213248D01*
X63704Y213250D01*
X63805Y213248D01*
X63905Y213242D01*
X64005Y213232D01*
X64105Y213219D01*
X64204Y213201D01*
X64303Y213180D01*
X64400Y213155D01*
X64497Y213126D01*
X64592Y213093D01*
X64686Y213057D01*
X64778Y213017D01*
X64869Y212974D01*
X64958Y212927D01*
X65045Y212877D01*
X65131Y212823D01*
X65214Y212766D01*
X65294Y212706D01*
X65373Y212643D01*
X65449Y212576D01*
X65522Y212507D01*
X65592Y212435D01*
X65660Y212361D01*
X65725Y212284D01*
X65786Y212204D01*
X65845Y212122D01*
X65900Y212038D01*
X65952Y211952D01*
X66001Y211864D01*
X66046Y211774D01*
X66088Y211682D01*
X66126Y211589D01*
X66160Y211494D01*
X66191Y211399D01*
X66218Y211302D01*
X66241Y211204D01*
X66261Y211105D01*
X66276Y211005D01*
X66288Y210905D01*
X66296Y210805D01*
X66300Y210704D01*
X66300Y210604D01*
X66296Y210503D01*
X66288Y210403D01*
X66276Y210303D01*
X66261Y210203D01*
X66241Y210104D01*
X66218Y210006D01*
X66191Y209909D01*
X66160Y209814D01*
X66126Y209719D01*
X66088Y209626D01*
X66046Y209534D01*
X66001Y209444D01*
X65952Y209356D01*
X65900Y209270D01*
X65845Y209186D01*
X65786Y209104D01*
X65725Y209024D01*
X65660Y208947D01*
X65592Y208873D01*
X65522Y208801D01*
X65449Y208732D01*
X65373Y208665D01*
X65294Y208602D01*
X65214Y208542D01*
X65131Y208485D01*
X65045Y208431D01*
X64958Y208381D01*
X64869Y208334D01*
X64778Y208291D01*
X64686Y208251D01*
X64592Y208215D01*
X64497Y208182D01*
X64400Y208153D01*
X64303Y208128D01*
X64204Y208107D01*
X64105Y208089D01*
X64005Y208076D01*
X63905Y208066D01*
X63805Y208060D01*
X63704Y208058D01*
D13*
X55000Y189500D03*
X67000Y189500D03*
D14*
X61000Y189500D03*
D10*
X47792Y175808D02*
X36108Y175808D01*
X47792Y175808D02*
X47792Y181001D01*
X47792Y185714D02*
X47792Y190907D01*
X47792Y185714D02*
X36108Y185714D01*
X36108Y190907D01*
X41301Y189609D02*
X41301Y185714D01*
X36108Y195597D02*
X47792Y195597D01*
X36108Y195597D02*
X36108Y198843D01*
X36110Y198956D01*
X36116Y199069D01*
X36126Y199182D01*
X36140Y199295D01*
X36157Y199407D01*
X36179Y199518D01*
X36204Y199628D01*
X36234Y199738D01*
X36267Y199846D01*
X36304Y199953D01*
X36344Y200059D01*
X36389Y200163D01*
X36437Y200266D01*
X36488Y200367D01*
X36543Y200466D01*
X36601Y200563D01*
X36663Y200658D01*
X36728Y200751D01*
X36796Y200841D01*
X36867Y200929D01*
X36942Y201015D01*
X37019Y201098D01*
X37099Y201178D01*
X37182Y201255D01*
X37268Y201330D01*
X37356Y201401D01*
X37446Y201469D01*
X37539Y201534D01*
X37634Y201596D01*
X37731Y201654D01*
X37830Y201709D01*
X37931Y201760D01*
X38034Y201808D01*
X38138Y201853D01*
X38244Y201893D01*
X38351Y201930D01*
X38459Y201963D01*
X38569Y201993D01*
X38679Y202018D01*
X38790Y202040D01*
X38902Y202057D01*
X39015Y202071D01*
X39128Y202081D01*
X39241Y202087D01*
X39354Y202089D01*
X44546Y202089D01*
X44659Y202087D01*
X44772Y202081D01*
X44885Y202071D01*
X44998Y202057D01*
X45110Y202040D01*
X45221Y202018D01*
X45331Y201993D01*
X45441Y201963D01*
X45549Y201930D01*
X45656Y201893D01*
X45762Y201853D01*
X45866Y201808D01*
X45969Y201760D01*
X46070Y201709D01*
X46169Y201654D01*
X46266Y201596D01*
X46361Y201534D01*
X46454Y201469D01*
X46544Y201401D01*
X46632Y201330D01*
X46718Y201255D01*
X46801Y201178D01*
X46881Y201098D01*
X46958Y201015D01*
X47033Y200929D01*
X47104Y200841D01*
X47172Y200751D01*
X47237Y200658D01*
X47299Y200563D01*
X47357Y200466D01*
X47412Y200367D01*
X47463Y200266D01*
X47511Y200163D01*
X47556Y200059D01*
X47596Y199953D01*
X47633Y199846D01*
X47666Y199738D01*
X47696Y199628D01*
X47721Y199518D01*
X47743Y199407D01*
X47760Y199295D01*
X47774Y199182D01*
X47784Y199069D01*
X47790Y198956D01*
X47792Y198843D01*
X47792Y195597D01*
X42599Y210005D02*
X42599Y213899D01*
X42599Y210005D02*
X42597Y209906D01*
X42591Y209806D01*
X42582Y209707D01*
X42569Y209609D01*
X42552Y209511D01*
X42531Y209413D01*
X42506Y209317D01*
X42478Y209222D01*
X42446Y209128D01*
X42411Y209035D01*
X42372Y208943D01*
X42329Y208853D01*
X42284Y208765D01*
X42234Y208678D01*
X42182Y208594D01*
X42126Y208511D01*
X42068Y208431D01*
X42006Y208353D01*
X41941Y208278D01*
X41873Y208205D01*
X41803Y208135D01*
X41730Y208067D01*
X41655Y208002D01*
X41577Y207940D01*
X41497Y207882D01*
X41414Y207826D01*
X41330Y207774D01*
X41243Y207724D01*
X41155Y207679D01*
X41065Y207636D01*
X40973Y207597D01*
X40880Y207562D01*
X40786Y207530D01*
X40691Y207502D01*
X40595Y207477D01*
X40497Y207456D01*
X40399Y207439D01*
X40301Y207426D01*
X40202Y207417D01*
X40102Y207411D01*
X40003Y207409D01*
X40003Y207408D02*
X39354Y207408D01*
X39241Y207410D01*
X39128Y207416D01*
X39015Y207426D01*
X38902Y207440D01*
X38790Y207457D01*
X38679Y207479D01*
X38569Y207504D01*
X38459Y207534D01*
X38351Y207567D01*
X38244Y207604D01*
X38138Y207644D01*
X38034Y207689D01*
X37931Y207737D01*
X37830Y207788D01*
X37731Y207843D01*
X37634Y207901D01*
X37539Y207963D01*
X37446Y208028D01*
X37356Y208096D01*
X37268Y208167D01*
X37182Y208242D01*
X37099Y208319D01*
X37019Y208399D01*
X36942Y208482D01*
X36867Y208568D01*
X36796Y208656D01*
X36728Y208746D01*
X36663Y208839D01*
X36601Y208934D01*
X36543Y209031D01*
X36488Y209130D01*
X36437Y209231D01*
X36389Y209334D01*
X36344Y209438D01*
X36304Y209544D01*
X36267Y209651D01*
X36234Y209759D01*
X36204Y209869D01*
X36179Y209979D01*
X36157Y210090D01*
X36140Y210202D01*
X36126Y210315D01*
X36116Y210428D01*
X36110Y210541D01*
X36108Y210654D01*
X36110Y210767D01*
X36116Y210880D01*
X36126Y210993D01*
X36140Y211106D01*
X36157Y211218D01*
X36179Y211329D01*
X36204Y211439D01*
X36234Y211549D01*
X36267Y211657D01*
X36304Y211764D01*
X36344Y211870D01*
X36389Y211974D01*
X36437Y212077D01*
X36488Y212178D01*
X36543Y212277D01*
X36601Y212374D01*
X36663Y212469D01*
X36728Y212562D01*
X36796Y212652D01*
X36867Y212740D01*
X36942Y212826D01*
X37019Y212909D01*
X37099Y212989D01*
X37182Y213066D01*
X37268Y213141D01*
X37356Y213212D01*
X37446Y213280D01*
X37539Y213345D01*
X37634Y213407D01*
X37731Y213465D01*
X37830Y213520D01*
X37931Y213571D01*
X38034Y213619D01*
X38138Y213664D01*
X38244Y213704D01*
X38351Y213741D01*
X38459Y213774D01*
X38569Y213804D01*
X38679Y213829D01*
X38790Y213851D01*
X38902Y213868D01*
X39015Y213882D01*
X39128Y213892D01*
X39241Y213898D01*
X39354Y213900D01*
X39354Y213899D02*
X42599Y213899D01*
X42599Y213900D02*
X42742Y213898D01*
X42885Y213892D01*
X43028Y213882D01*
X43170Y213868D01*
X43312Y213851D01*
X43454Y213829D01*
X43595Y213804D01*
X43735Y213774D01*
X43874Y213741D01*
X44012Y213704D01*
X44149Y213663D01*
X44285Y213619D01*
X44420Y213570D01*
X44553Y213518D01*
X44685Y213463D01*
X44815Y213403D01*
X44944Y213340D01*
X45071Y213274D01*
X45196Y213204D01*
X45318Y213131D01*
X45439Y213054D01*
X45558Y212974D01*
X45674Y212891D01*
X45789Y212805D01*
X45900Y212716D01*
X46010Y212623D01*
X46116Y212528D01*
X46220Y212429D01*
X46321Y212328D01*
X46420Y212224D01*
X46515Y212118D01*
X46608Y212008D01*
X46697Y211897D01*
X46783Y211782D01*
X46866Y211666D01*
X46946Y211547D01*
X47023Y211426D01*
X47096Y211304D01*
X47166Y211179D01*
X47232Y211052D01*
X47295Y210923D01*
X47355Y210793D01*
X47410Y210661D01*
X47462Y210528D01*
X47511Y210393D01*
X47555Y210257D01*
X47596Y210120D01*
X47633Y209982D01*
X47666Y209843D01*
X47696Y209703D01*
X47721Y209562D01*
X47743Y209420D01*
X47760Y209278D01*
X47774Y209136D01*
X47784Y208993D01*
X47790Y208850D01*
X47792Y208707D01*
D11*
X177110Y159510D02*
X194890Y159510D01*
X196160Y217930D02*
X196158Y218030D01*
X196152Y218129D01*
X196142Y218229D01*
X196129Y218327D01*
X196111Y218426D01*
X196090Y218523D01*
X196065Y218619D01*
X196036Y218715D01*
X196003Y218809D01*
X195967Y218902D01*
X195927Y218993D01*
X195883Y219083D01*
X195836Y219171D01*
X195786Y219257D01*
X195732Y219341D01*
X195675Y219423D01*
X195615Y219502D01*
X195551Y219580D01*
X195485Y219654D01*
X195416Y219726D01*
X195344Y219795D01*
X195270Y219861D01*
X195192Y219925D01*
X195113Y219985D01*
X195031Y220042D01*
X194947Y220096D01*
X194861Y220146D01*
X194773Y220193D01*
X194683Y220237D01*
X194592Y220277D01*
X194499Y220313D01*
X194405Y220346D01*
X194309Y220375D01*
X194213Y220400D01*
X194116Y220421D01*
X194017Y220439D01*
X193919Y220452D01*
X193819Y220462D01*
X193720Y220468D01*
X193620Y220470D01*
X178380Y220470D02*
X178280Y220468D01*
X178181Y220462D01*
X178081Y220452D01*
X177983Y220439D01*
X177884Y220421D01*
X177787Y220400D01*
X177691Y220375D01*
X177595Y220346D01*
X177501Y220313D01*
X177408Y220277D01*
X177317Y220237D01*
X177227Y220193D01*
X177139Y220146D01*
X177053Y220096D01*
X176969Y220042D01*
X176887Y219985D01*
X176808Y219925D01*
X176730Y219861D01*
X176656Y219795D01*
X176584Y219726D01*
X176515Y219654D01*
X176449Y219580D01*
X176385Y219502D01*
X176325Y219423D01*
X176268Y219341D01*
X176214Y219257D01*
X176164Y219171D01*
X176117Y219083D01*
X176073Y218993D01*
X176033Y218902D01*
X175997Y218809D01*
X175964Y218715D01*
X175935Y218619D01*
X175910Y218523D01*
X175889Y218426D01*
X175871Y218327D01*
X175858Y218229D01*
X175848Y218129D01*
X175842Y218030D01*
X175840Y217930D01*
X178380Y220470D02*
X193620Y220470D01*
X194890Y163320D02*
X194890Y159510D01*
X196160Y163320D02*
X196160Y217930D01*
X177110Y163320D02*
X177110Y159510D01*
X177110Y163320D02*
X175840Y163320D01*
X175840Y217930D01*
D15*
X191080Y154430D02*
X191080Y150620D01*
X180920Y150620D02*
X180920Y155700D01*
D11*
X180920Y188720D02*
X180920Y192530D01*
X180920Y188720D02*
X191080Y188720D01*
X191080Y192530D01*
X180920Y192530D01*
X180920Y196340D02*
X186000Y196340D01*
X186000Y184910D02*
X180920Y184910D01*
X186000Y184910D02*
X186000Y179830D01*
X186000Y184910D02*
X191080Y184910D01*
X186000Y196340D02*
X186000Y201420D01*
X186000Y196340D02*
X191080Y196340D01*
X194890Y163320D02*
X196160Y163320D01*
X194890Y163320D02*
X177110Y163320D01*
D16*
X191080Y156081D03*
X180920Y156081D03*
D17*
X168220Y163955D02*
X163140Y163955D01*
X163029Y163957D01*
X162919Y163963D01*
X162808Y163972D01*
X162698Y163986D01*
X162589Y164003D01*
X162480Y164024D01*
X162372Y164049D01*
X162265Y164078D01*
X162159Y164110D01*
X162054Y164146D01*
X161951Y164186D01*
X161849Y164229D01*
X161748Y164276D01*
X161649Y164327D01*
X161553Y164380D01*
X161458Y164437D01*
X161365Y164498D01*
X161274Y164561D01*
X161185Y164628D01*
X161099Y164698D01*
X161016Y164771D01*
X160934Y164846D01*
X160856Y164924D01*
X160781Y165006D01*
X160708Y165089D01*
X160638Y165175D01*
X160571Y165264D01*
X160508Y165355D01*
X160447Y165448D01*
X160390Y165543D01*
X160337Y165639D01*
X160286Y165738D01*
X160239Y165839D01*
X160196Y165941D01*
X160156Y166044D01*
X160120Y166149D01*
X160088Y166255D01*
X160059Y166362D01*
X160034Y166470D01*
X160013Y166579D01*
X159996Y166688D01*
X159982Y166798D01*
X159973Y166909D01*
X159967Y167019D01*
X159965Y167130D01*
X159967Y167241D01*
X159973Y167351D01*
X159982Y167462D01*
X159996Y167572D01*
X160013Y167681D01*
X160034Y167790D01*
X160059Y167898D01*
X160088Y168005D01*
X160120Y168111D01*
X160156Y168216D01*
X160196Y168319D01*
X160239Y168421D01*
X160286Y168522D01*
X160337Y168621D01*
X160390Y168718D01*
X160447Y168812D01*
X160508Y168905D01*
X160571Y168996D01*
X160638Y169085D01*
X160708Y169171D01*
X160781Y169254D01*
X160856Y169336D01*
X160934Y169414D01*
X161016Y169489D01*
X161099Y169562D01*
X161185Y169632D01*
X161274Y169699D01*
X161365Y169762D01*
X161458Y169823D01*
X161553Y169880D01*
X161649Y169933D01*
X161748Y169984D01*
X161849Y170031D01*
X161951Y170074D01*
X162054Y170114D01*
X162159Y170150D01*
X162265Y170182D01*
X162372Y170211D01*
X162480Y170236D01*
X162589Y170257D01*
X162698Y170274D01*
X162808Y170288D01*
X162919Y170297D01*
X163029Y170303D01*
X163140Y170305D01*
X168220Y170305D01*
X168331Y170303D01*
X168441Y170297D01*
X168552Y170288D01*
X168662Y170274D01*
X168771Y170257D01*
X168880Y170236D01*
X168988Y170211D01*
X169095Y170182D01*
X169201Y170150D01*
X169306Y170114D01*
X169409Y170074D01*
X169511Y170031D01*
X169612Y169984D01*
X169711Y169933D01*
X169808Y169880D01*
X169902Y169823D01*
X169995Y169762D01*
X170086Y169699D01*
X170175Y169632D01*
X170261Y169562D01*
X170344Y169489D01*
X170426Y169414D01*
X170504Y169336D01*
X170579Y169254D01*
X170652Y169171D01*
X170722Y169085D01*
X170789Y168996D01*
X170852Y168905D01*
X170913Y168812D01*
X170970Y168717D01*
X171023Y168621D01*
X171074Y168522D01*
X171121Y168421D01*
X171164Y168319D01*
X171204Y168216D01*
X171240Y168111D01*
X171272Y168005D01*
X171301Y167898D01*
X171326Y167790D01*
X171347Y167681D01*
X171364Y167572D01*
X171378Y167462D01*
X171387Y167351D01*
X171393Y167241D01*
X171395Y167130D01*
X171393Y167019D01*
X171387Y166909D01*
X171378Y166798D01*
X171364Y166688D01*
X171347Y166579D01*
X171326Y166470D01*
X171301Y166362D01*
X171272Y166255D01*
X171240Y166149D01*
X171204Y166044D01*
X171164Y165941D01*
X171121Y165839D01*
X171074Y165738D01*
X171023Y165639D01*
X170970Y165542D01*
X170913Y165448D01*
X170852Y165355D01*
X170789Y165264D01*
X170722Y165175D01*
X170652Y165089D01*
X170579Y165006D01*
X170504Y164924D01*
X170426Y164846D01*
X170344Y164771D01*
X170261Y164698D01*
X170175Y164628D01*
X170086Y164561D01*
X169995Y164498D01*
X169902Y164437D01*
X169807Y164380D01*
X169711Y164327D01*
X169612Y164276D01*
X169511Y164229D01*
X169409Y164186D01*
X169306Y164146D01*
X169201Y164110D01*
X169095Y164078D01*
X168988Y164049D01*
X168880Y164024D01*
X168771Y164003D01*
X168662Y163986D01*
X168552Y163972D01*
X168441Y163963D01*
X168331Y163957D01*
X168220Y163955D01*
X168855Y169035D02*
X171395Y171575D01*
X162505Y175016D02*
X159965Y178191D01*
X171395Y178191D01*
X171395Y175016D02*
X171395Y181366D01*
D10*
X38995Y134792D02*
X38995Y123108D01*
X38995Y134792D02*
X42240Y134792D01*
X42353Y134790D01*
X42466Y134784D01*
X42579Y134774D01*
X42692Y134760D01*
X42804Y134743D01*
X42915Y134721D01*
X43025Y134696D01*
X43135Y134666D01*
X43243Y134633D01*
X43350Y134596D01*
X43456Y134556D01*
X43560Y134511D01*
X43663Y134463D01*
X43764Y134412D01*
X43863Y134357D01*
X43960Y134299D01*
X44055Y134237D01*
X44148Y134172D01*
X44238Y134104D01*
X44326Y134033D01*
X44412Y133958D01*
X44495Y133881D01*
X44575Y133801D01*
X44652Y133718D01*
X44727Y133632D01*
X44798Y133544D01*
X44866Y133454D01*
X44931Y133361D01*
X44993Y133266D01*
X45051Y133169D01*
X45106Y133070D01*
X45157Y132969D01*
X45205Y132866D01*
X45250Y132762D01*
X45290Y132656D01*
X45327Y132549D01*
X45360Y132441D01*
X45390Y132331D01*
X45415Y132221D01*
X45437Y132110D01*
X45454Y131998D01*
X45468Y131885D01*
X45478Y131772D01*
X45484Y131659D01*
X45486Y131546D01*
X45484Y131433D01*
X45478Y131320D01*
X45468Y131207D01*
X45454Y131094D01*
X45437Y130982D01*
X45415Y130871D01*
X45390Y130761D01*
X45360Y130651D01*
X45327Y130543D01*
X45290Y130436D01*
X45250Y130330D01*
X45205Y130226D01*
X45157Y130123D01*
X45106Y130022D01*
X45051Y129923D01*
X44993Y129826D01*
X44931Y129731D01*
X44866Y129638D01*
X44798Y129548D01*
X44727Y129460D01*
X44652Y129374D01*
X44575Y129291D01*
X44495Y129211D01*
X44412Y129134D01*
X44326Y129059D01*
X44238Y128988D01*
X44148Y128920D01*
X44055Y128855D01*
X43960Y128793D01*
X43863Y128735D01*
X43764Y128680D01*
X43663Y128629D01*
X43560Y128581D01*
X43456Y128536D01*
X43350Y128496D01*
X43243Y128459D01*
X43135Y128426D01*
X43025Y128396D01*
X42915Y128371D01*
X42804Y128349D01*
X42692Y128332D01*
X42579Y128318D01*
X42466Y128308D01*
X42353Y128302D01*
X42240Y128300D01*
X42240Y128301D02*
X38995Y128301D01*
X42889Y128301D02*
X45486Y123108D01*
X50351Y132196D02*
X53596Y134792D01*
X53596Y123108D01*
X50351Y123108D02*
X56842Y123108D01*
X135158Y161208D02*
X135158Y172892D01*
X138404Y172892D01*
X138517Y172890D01*
X138630Y172884D01*
X138743Y172874D01*
X138856Y172860D01*
X138968Y172843D01*
X139079Y172821D01*
X139189Y172796D01*
X139299Y172766D01*
X139407Y172733D01*
X139514Y172696D01*
X139620Y172656D01*
X139724Y172611D01*
X139827Y172563D01*
X139928Y172512D01*
X140027Y172457D01*
X140124Y172399D01*
X140219Y172337D01*
X140312Y172272D01*
X140402Y172204D01*
X140490Y172133D01*
X140576Y172058D01*
X140659Y171981D01*
X140739Y171901D01*
X140816Y171818D01*
X140891Y171732D01*
X140962Y171644D01*
X141030Y171554D01*
X141095Y171461D01*
X141157Y171366D01*
X141215Y171269D01*
X141270Y171170D01*
X141321Y171069D01*
X141369Y170966D01*
X141414Y170862D01*
X141454Y170756D01*
X141491Y170649D01*
X141524Y170541D01*
X141554Y170431D01*
X141579Y170321D01*
X141601Y170210D01*
X141618Y170098D01*
X141632Y169985D01*
X141642Y169872D01*
X141648Y169759D01*
X141650Y169646D01*
X141648Y169533D01*
X141642Y169420D01*
X141632Y169307D01*
X141618Y169194D01*
X141601Y169082D01*
X141579Y168971D01*
X141554Y168861D01*
X141524Y168751D01*
X141491Y168643D01*
X141454Y168536D01*
X141414Y168430D01*
X141369Y168326D01*
X141321Y168223D01*
X141270Y168122D01*
X141215Y168023D01*
X141157Y167926D01*
X141095Y167831D01*
X141030Y167738D01*
X140962Y167648D01*
X140891Y167560D01*
X140816Y167474D01*
X140739Y167391D01*
X140659Y167311D01*
X140576Y167234D01*
X140490Y167159D01*
X140402Y167088D01*
X140312Y167020D01*
X140219Y166955D01*
X140124Y166893D01*
X140027Y166835D01*
X139928Y166780D01*
X139827Y166729D01*
X139724Y166681D01*
X139620Y166636D01*
X139514Y166596D01*
X139407Y166559D01*
X139299Y166526D01*
X139189Y166496D01*
X139079Y166471D01*
X138968Y166449D01*
X138856Y166432D01*
X138743Y166418D01*
X138630Y166408D01*
X138517Y166402D01*
X138404Y166400D01*
X138404Y166401D02*
X135158Y166401D01*
X139053Y166401D02*
X141649Y161208D01*
X153005Y169971D02*
X153003Y170078D01*
X152997Y170184D01*
X152987Y170290D01*
X152974Y170396D01*
X152956Y170502D01*
X152935Y170606D01*
X152910Y170710D01*
X152881Y170813D01*
X152849Y170914D01*
X152812Y171014D01*
X152772Y171113D01*
X152729Y171211D01*
X152682Y171307D01*
X152631Y171401D01*
X152577Y171493D01*
X152520Y171583D01*
X152460Y171671D01*
X152396Y171756D01*
X152329Y171839D01*
X152259Y171920D01*
X152187Y171998D01*
X152111Y172074D01*
X152033Y172146D01*
X151952Y172216D01*
X151869Y172283D01*
X151784Y172347D01*
X151696Y172407D01*
X151606Y172464D01*
X151514Y172518D01*
X151420Y172569D01*
X151324Y172616D01*
X151226Y172659D01*
X151127Y172699D01*
X151027Y172736D01*
X150926Y172768D01*
X150823Y172797D01*
X150719Y172822D01*
X150615Y172843D01*
X150509Y172861D01*
X150403Y172874D01*
X150297Y172884D01*
X150191Y172890D01*
X150084Y172892D01*
X149963Y172890D01*
X149842Y172884D01*
X149722Y172874D01*
X149601Y172861D01*
X149482Y172843D01*
X149362Y172822D01*
X149244Y172797D01*
X149127Y172768D01*
X149010Y172735D01*
X148895Y172699D01*
X148781Y172658D01*
X148668Y172615D01*
X148556Y172567D01*
X148447Y172516D01*
X148339Y172461D01*
X148232Y172403D01*
X148128Y172342D01*
X148026Y172277D01*
X147926Y172209D01*
X147828Y172138D01*
X147732Y172064D01*
X147639Y171987D01*
X147549Y171906D01*
X147461Y171823D01*
X147376Y171737D01*
X147293Y171648D01*
X147214Y171557D01*
X147137Y171463D01*
X147064Y171367D01*
X146994Y171269D01*
X146927Y171168D01*
X146863Y171065D01*
X146803Y170960D01*
X146746Y170853D01*
X146692Y170745D01*
X146642Y170635D01*
X146596Y170523D01*
X146553Y170410D01*
X146514Y170295D01*
X152032Y167699D02*
X152111Y167776D01*
X152187Y167857D01*
X152260Y167940D01*
X152330Y168025D01*
X152397Y168113D01*
X152461Y168203D01*
X152521Y168295D01*
X152578Y168390D01*
X152632Y168486D01*
X152683Y168584D01*
X152730Y168684D01*
X152774Y168786D01*
X152814Y168889D01*
X152850Y168993D01*
X152882Y169099D01*
X152911Y169205D01*
X152936Y169313D01*
X152958Y169421D01*
X152975Y169531D01*
X152989Y169640D01*
X152998Y169750D01*
X153004Y169861D01*
X153006Y169971D01*
X152032Y167699D02*
X146514Y161208D01*
X153005Y161208D01*
D11*
X58380Y47520D02*
X58380Y44980D01*
X73620Y44980D01*
X73620Y47520D01*
X73620Y108480D02*
X73620Y111020D01*
X58380Y111020D01*
X58380Y108480D01*
D18*
X93940Y90700D02*
X96480Y90700D01*
X93940Y90700D02*
X93940Y65300D01*
X96480Y65300D01*
X38060Y66570D02*
X38060Y90700D01*
X38060Y66570D02*
X35520Y66570D01*
X35520Y90700D02*
X38060Y90700D01*
D11*
X35520Y90700D02*
X35520Y99590D01*
X96480Y65300D02*
X96480Y56410D01*
X96480Y65300D02*
X96480Y90700D01*
X96480Y99590D01*
X35520Y90700D02*
X35520Y66570D01*
X35520Y56410D01*
X55840Y47520D02*
X58380Y47520D01*
X73620Y47520D02*
X76160Y47520D01*
X58380Y108480D02*
X55840Y108480D01*
X73620Y108480D02*
X76160Y108480D01*
X48220Y78000D02*
X48225Y78436D01*
X48241Y78872D01*
X48268Y79308D01*
X48306Y79743D01*
X48354Y80176D01*
X48412Y80609D01*
X48482Y81040D01*
X48562Y81469D01*
X48652Y81896D01*
X48753Y82320D01*
X48864Y82742D01*
X48986Y83161D01*
X49117Y83577D01*
X49259Y83990D01*
X49411Y84399D01*
X49573Y84804D01*
X49745Y85205D01*
X49927Y85602D01*
X50118Y85994D01*
X50319Y86381D01*
X50530Y86764D01*
X50750Y87141D01*
X50979Y87512D01*
X51216Y87878D01*
X51463Y88238D01*
X51719Y88592D01*
X51983Y88939D01*
X52256Y89280D01*
X52537Y89613D01*
X52826Y89940D01*
X53123Y90260D01*
X53428Y90572D01*
X53740Y90877D01*
X54060Y91174D01*
X54387Y91463D01*
X54720Y91744D01*
X55061Y92017D01*
X55408Y92281D01*
X55762Y92537D01*
X56122Y92784D01*
X56488Y93021D01*
X56859Y93250D01*
X57236Y93470D01*
X57619Y93681D01*
X58006Y93882D01*
X58398Y94073D01*
X58795Y94255D01*
X59196Y94427D01*
X59601Y94589D01*
X60010Y94741D01*
X60423Y94883D01*
X60839Y95014D01*
X61258Y95136D01*
X61680Y95247D01*
X62104Y95348D01*
X62531Y95438D01*
X62960Y95518D01*
X63391Y95588D01*
X63824Y95646D01*
X64257Y95694D01*
X64692Y95732D01*
X65128Y95759D01*
X65564Y95775D01*
X66000Y95780D01*
X66436Y95775D01*
X66872Y95759D01*
X67308Y95732D01*
X67743Y95694D01*
X68176Y95646D01*
X68609Y95588D01*
X69040Y95518D01*
X69469Y95438D01*
X69896Y95348D01*
X70320Y95247D01*
X70742Y95136D01*
X71161Y95014D01*
X71577Y94883D01*
X71990Y94741D01*
X72399Y94589D01*
X72804Y94427D01*
X73205Y94255D01*
X73602Y94073D01*
X73994Y93882D01*
X74381Y93681D01*
X74764Y93470D01*
X75141Y93250D01*
X75512Y93021D01*
X75878Y92784D01*
X76238Y92537D01*
X76592Y92281D01*
X76939Y92017D01*
X77280Y91744D01*
X77613Y91463D01*
X77940Y91174D01*
X78260Y90877D01*
X78572Y90572D01*
X78877Y90260D01*
X79174Y89940D01*
X79463Y89613D01*
X79744Y89280D01*
X80017Y88939D01*
X80281Y88592D01*
X80537Y88238D01*
X80784Y87878D01*
X81021Y87512D01*
X81250Y87141D01*
X81470Y86764D01*
X81681Y86381D01*
X81882Y85994D01*
X82073Y85602D01*
X82255Y85205D01*
X82427Y84804D01*
X82589Y84399D01*
X82741Y83990D01*
X82883Y83577D01*
X83014Y83161D01*
X83136Y82742D01*
X83247Y82320D01*
X83348Y81896D01*
X83438Y81469D01*
X83518Y81040D01*
X83588Y80609D01*
X83646Y80176D01*
X83694Y79743D01*
X83732Y79308D01*
X83759Y78872D01*
X83775Y78436D01*
X83780Y78000D01*
X83775Y77564D01*
X83759Y77128D01*
X83732Y76692D01*
X83694Y76257D01*
X83646Y75824D01*
X83588Y75391D01*
X83518Y74960D01*
X83438Y74531D01*
X83348Y74104D01*
X83247Y73680D01*
X83136Y73258D01*
X83014Y72839D01*
X82883Y72423D01*
X82741Y72010D01*
X82589Y71601D01*
X82427Y71196D01*
X82255Y70795D01*
X82073Y70398D01*
X81882Y70006D01*
X81681Y69619D01*
X81470Y69236D01*
X81250Y68859D01*
X81021Y68488D01*
X80784Y68122D01*
X80537Y67762D01*
X80281Y67408D01*
X80017Y67061D01*
X79744Y66720D01*
X79463Y66387D01*
X79174Y66060D01*
X78877Y65740D01*
X78572Y65428D01*
X78260Y65123D01*
X77940Y64826D01*
X77613Y64537D01*
X77280Y64256D01*
X76939Y63983D01*
X76592Y63719D01*
X76238Y63463D01*
X75878Y63216D01*
X75512Y62979D01*
X75141Y62750D01*
X74764Y62530D01*
X74381Y62319D01*
X73994Y62118D01*
X73602Y61927D01*
X73205Y61745D01*
X72804Y61573D01*
X72399Y61411D01*
X71990Y61259D01*
X71577Y61117D01*
X71161Y60986D01*
X70742Y60864D01*
X70320Y60753D01*
X69896Y60652D01*
X69469Y60562D01*
X69040Y60482D01*
X68609Y60412D01*
X68176Y60354D01*
X67743Y60306D01*
X67308Y60268D01*
X66872Y60241D01*
X66436Y60225D01*
X66000Y60220D01*
X65564Y60225D01*
X65128Y60241D01*
X64692Y60268D01*
X64257Y60306D01*
X63824Y60354D01*
X63391Y60412D01*
X62960Y60482D01*
X62531Y60562D01*
X62104Y60652D01*
X61680Y60753D01*
X61258Y60864D01*
X60839Y60986D01*
X60423Y61117D01*
X60010Y61259D01*
X59601Y61411D01*
X59196Y61573D01*
X58795Y61745D01*
X58398Y61927D01*
X58006Y62118D01*
X57619Y62319D01*
X57236Y62530D01*
X56859Y62750D01*
X56488Y62979D01*
X56122Y63216D01*
X55762Y63463D01*
X55408Y63719D01*
X55061Y63983D01*
X54720Y64256D01*
X54387Y64537D01*
X54060Y64826D01*
X53740Y65123D01*
X53428Y65428D01*
X53123Y65740D01*
X52826Y66060D01*
X52537Y66387D01*
X52256Y66720D01*
X51983Y67061D01*
X51719Y67408D01*
X51463Y67762D01*
X51216Y68122D01*
X50979Y68488D01*
X50750Y68859D01*
X50530Y69236D01*
X50319Y69619D01*
X50118Y70006D01*
X49927Y70398D01*
X49745Y70795D01*
X49573Y71196D01*
X49411Y71601D01*
X49259Y72010D01*
X49117Y72423D01*
X48986Y72839D01*
X48864Y73258D01*
X48753Y73680D01*
X48652Y74104D01*
X48562Y74531D01*
X48482Y74960D01*
X48412Y75391D01*
X48354Y75824D01*
X48306Y76257D01*
X48268Y76692D01*
X48241Y77128D01*
X48225Y77564D01*
X48220Y78000D01*
X63460Y78000D02*
X63462Y78100D01*
X63468Y78201D01*
X63478Y78300D01*
X63492Y78400D01*
X63509Y78499D01*
X63531Y78597D01*
X63557Y78694D01*
X63586Y78790D01*
X63619Y78884D01*
X63656Y78978D01*
X63696Y79070D01*
X63740Y79160D01*
X63788Y79248D01*
X63839Y79335D01*
X63893Y79419D01*
X63951Y79501D01*
X64012Y79581D01*
X64076Y79658D01*
X64143Y79733D01*
X64213Y79805D01*
X64286Y79874D01*
X64361Y79940D01*
X64439Y80004D01*
X64519Y80064D01*
X64602Y80121D01*
X64687Y80174D01*
X64774Y80224D01*
X64863Y80271D01*
X64953Y80314D01*
X65045Y80354D01*
X65139Y80390D01*
X65234Y80422D01*
X65330Y80450D01*
X65428Y80475D01*
X65526Y80495D01*
X65625Y80512D01*
X65725Y80525D01*
X65824Y80534D01*
X65925Y80539D01*
X66025Y80540D01*
X66125Y80537D01*
X66226Y80530D01*
X66325Y80519D01*
X66425Y80504D01*
X66523Y80486D01*
X66621Y80463D01*
X66718Y80436D01*
X66813Y80406D01*
X66908Y80372D01*
X67001Y80334D01*
X67092Y80293D01*
X67182Y80248D01*
X67270Y80200D01*
X67356Y80148D01*
X67440Y80093D01*
X67521Y80034D01*
X67600Y79972D01*
X67677Y79908D01*
X67751Y79840D01*
X67822Y79769D01*
X67891Y79696D01*
X67956Y79620D01*
X68019Y79541D01*
X68078Y79460D01*
X68134Y79377D01*
X68187Y79292D01*
X68236Y79204D01*
X68282Y79115D01*
X68324Y79024D01*
X68363Y78931D01*
X68398Y78837D01*
X68429Y78742D01*
X68457Y78645D01*
X68480Y78548D01*
X68500Y78449D01*
X68516Y78350D01*
X68528Y78251D01*
X68536Y78150D01*
X68540Y78050D01*
X68540Y77950D01*
X68536Y77850D01*
X68528Y77749D01*
X68516Y77650D01*
X68500Y77551D01*
X68480Y77452D01*
X68457Y77355D01*
X68429Y77258D01*
X68398Y77163D01*
X68363Y77069D01*
X68324Y76976D01*
X68282Y76885D01*
X68236Y76796D01*
X68187Y76708D01*
X68134Y76623D01*
X68078Y76540D01*
X68019Y76459D01*
X67956Y76380D01*
X67891Y76304D01*
X67822Y76231D01*
X67751Y76160D01*
X67677Y76092D01*
X67600Y76028D01*
X67521Y75966D01*
X67440Y75907D01*
X67356Y75852D01*
X67270Y75800D01*
X67182Y75752D01*
X67092Y75707D01*
X67001Y75666D01*
X66908Y75628D01*
X66813Y75594D01*
X66718Y75564D01*
X66621Y75537D01*
X66523Y75514D01*
X66425Y75496D01*
X66325Y75481D01*
X66226Y75470D01*
X66125Y75463D01*
X66025Y75460D01*
X65925Y75461D01*
X65824Y75466D01*
X65725Y75475D01*
X65625Y75488D01*
X65526Y75505D01*
X65428Y75525D01*
X65330Y75550D01*
X65234Y75578D01*
X65139Y75610D01*
X65045Y75646D01*
X64953Y75686D01*
X64863Y75729D01*
X64774Y75776D01*
X64687Y75826D01*
X64602Y75879D01*
X64519Y75936D01*
X64439Y75996D01*
X64361Y76060D01*
X64286Y76126D01*
X64213Y76195D01*
X64143Y76267D01*
X64076Y76342D01*
X64012Y76419D01*
X63951Y76499D01*
X63893Y76581D01*
X63839Y76665D01*
X63788Y76752D01*
X63740Y76840D01*
X63696Y76930D01*
X63656Y77022D01*
X63619Y77116D01*
X63586Y77210D01*
X63557Y77306D01*
X63531Y77403D01*
X63509Y77501D01*
X63492Y77600D01*
X63478Y77700D01*
X63468Y77799D01*
X63462Y77900D01*
X63460Y78000D01*
D17*
X112355Y96796D02*
X112455Y96794D01*
X112554Y96788D01*
X112654Y96778D01*
X112752Y96765D01*
X112851Y96747D01*
X112948Y96726D01*
X113044Y96701D01*
X113140Y96672D01*
X113234Y96639D01*
X113327Y96603D01*
X113418Y96563D01*
X113508Y96519D01*
X113596Y96472D01*
X113682Y96422D01*
X113766Y96368D01*
X113848Y96311D01*
X113927Y96251D01*
X114005Y96187D01*
X114079Y96121D01*
X114151Y96052D01*
X114220Y95980D01*
X114286Y95906D01*
X114350Y95828D01*
X114410Y95749D01*
X114467Y95667D01*
X114521Y95583D01*
X114571Y95497D01*
X114618Y95409D01*
X114662Y95319D01*
X114702Y95228D01*
X114738Y95135D01*
X114771Y95041D01*
X114800Y94945D01*
X114825Y94849D01*
X114846Y94752D01*
X114864Y94653D01*
X114877Y94555D01*
X114887Y94455D01*
X114893Y94356D01*
X114895Y94256D01*
X114893Y94115D01*
X114888Y93974D01*
X114878Y93833D01*
X114865Y93692D01*
X114849Y93552D01*
X114828Y93412D01*
X114804Y93273D01*
X114776Y93134D01*
X114745Y92997D01*
X114710Y92860D01*
X114672Y92724D01*
X114630Y92589D01*
X114584Y92456D01*
X114535Y92323D01*
X114482Y92192D01*
X114426Y92063D01*
X114367Y91934D01*
X114304Y91808D01*
X114238Y91683D01*
X114169Y91560D01*
X114096Y91439D01*
X114020Y91320D01*
X113941Y91202D01*
X113860Y91087D01*
X113775Y90975D01*
X113687Y90864D01*
X113596Y90756D01*
X113503Y90650D01*
X113406Y90547D01*
X113307Y90446D01*
X106005Y90764D02*
X105905Y90766D01*
X105806Y90772D01*
X105706Y90782D01*
X105608Y90795D01*
X105509Y90813D01*
X105412Y90834D01*
X105316Y90859D01*
X105220Y90888D01*
X105126Y90921D01*
X105033Y90957D01*
X104942Y90997D01*
X104852Y91041D01*
X104764Y91088D01*
X104678Y91138D01*
X104594Y91192D01*
X104512Y91249D01*
X104433Y91309D01*
X104355Y91373D01*
X104281Y91439D01*
X104209Y91508D01*
X104140Y91580D01*
X104074Y91654D01*
X104010Y91732D01*
X103950Y91811D01*
X103893Y91893D01*
X103839Y91977D01*
X103789Y92063D01*
X103742Y92151D01*
X103698Y92241D01*
X103658Y92332D01*
X103622Y92425D01*
X103589Y92519D01*
X103560Y92615D01*
X103535Y92711D01*
X103514Y92808D01*
X103496Y92907D01*
X103483Y93005D01*
X103473Y93105D01*
X103467Y93204D01*
X103465Y93304D01*
X103467Y93437D01*
X103472Y93570D01*
X103482Y93703D01*
X103495Y93836D01*
X103512Y93968D01*
X103532Y94100D01*
X103556Y94231D01*
X103584Y94361D01*
X103615Y94491D01*
X103650Y94619D01*
X103689Y94747D01*
X103731Y94873D01*
X103777Y94998D01*
X103826Y95122D01*
X103878Y95245D01*
X103934Y95366D01*
X103994Y95485D01*
X104056Y95603D01*
X104122Y95718D01*
X104191Y95832D01*
X104264Y95944D01*
X104339Y96054D01*
X104418Y96162D01*
X108228Y92033D02*
X108176Y91949D01*
X108121Y91866D01*
X108062Y91786D01*
X108001Y91708D01*
X107937Y91633D01*
X107869Y91560D01*
X107799Y91489D01*
X107727Y91422D01*
X107652Y91357D01*
X107574Y91295D01*
X107494Y91236D01*
X107412Y91180D01*
X107328Y91128D01*
X107242Y91079D01*
X107154Y91033D01*
X107064Y90990D01*
X106973Y90951D01*
X106880Y90916D01*
X106786Y90884D01*
X106691Y90856D01*
X106595Y90831D01*
X106498Y90811D01*
X106400Y90793D01*
X106302Y90780D01*
X106203Y90771D01*
X106104Y90765D01*
X106005Y90763D01*
X110132Y95526D02*
X110184Y95610D01*
X110239Y95693D01*
X110298Y95773D01*
X110359Y95851D01*
X110423Y95926D01*
X110491Y95999D01*
X110561Y96070D01*
X110633Y96137D01*
X110708Y96202D01*
X110786Y96264D01*
X110866Y96323D01*
X110948Y96379D01*
X111032Y96431D01*
X111118Y96480D01*
X111206Y96526D01*
X111296Y96569D01*
X111387Y96608D01*
X111480Y96643D01*
X111574Y96675D01*
X111669Y96703D01*
X111765Y96728D01*
X111862Y96748D01*
X111960Y96766D01*
X112058Y96779D01*
X112157Y96788D01*
X112256Y96794D01*
X112355Y96796D01*
X110133Y95526D02*
X108228Y92034D01*
X106005Y101495D02*
X103465Y104670D01*
X114895Y104670D01*
X114895Y101495D02*
X114895Y107845D01*
M02*
