M48
FMAT,2
ICI,OFF
METRIC,TZ,000.000
T4C0.350
T3C0.813
T2C1.016
T1C2.000
%
G90
M71
T1
X3000Y24000
X2000Y3000
X21100Y2800
X21100Y24800
T2
X8861Y11051
X4339Y11051
X8861Y4549
X4339Y4549
T3
X17330Y14300
X19870Y14300
T4
X7310Y16716
X16964Y9725
X12292Y17783
X20217Y11535
X18083Y8944
X20979Y16869
X16300Y7100
X14883Y22146
X18031Y5077
X19210Y3796
X9800Y22700
X14835Y20831
X17474Y7268
X12900Y9200
X3000Y21400
X13206Y10525
X15492Y10773
X4215Y16564
X11835Y15192
X15564Y8811
X7315Y17931
X17778Y10625
X17331Y5891
M30
